<?xml version="1.0" encoding="UTF-8" standalone="no"?>
<!-- Created with Inkscape (http://www.inkscape.org/) -->

<svg
   version="1.1"
   id="svg9"
   width="1280"
   height="720"
   viewBox="0 0 1280 720"
   sodipodi:docname="One-DirectioN.svg"
   inkscape:version="1.2.1 (9c6d41e410, 2022-07-14)"
   xmlns:inkscape="http://www.inkscape.org/namespaces/inkscape"
   xmlns:sodipodi="http://sodipodi.sourceforge.net/DTD/sodipodi-0.dtd"
   xmlns="http://www.w3.org/2000/svg"
   xmlns:svg="http://www.w3.org/2000/svg">
  <defs
     id="defs13">
    <inkscape:path-effect
       effect="bspline"
       id="path-effect6450"
       is_visible="true"
       lpeversion="1"
       weight="33.333333"
       steps="2"
       helper_size="0"
       apply_no_weight="true"
       apply_with_weight="true"
       only_selected="false" />
    <inkscape:path-effect
       effect="bspline"
       id="path-effect6338"
       is_visible="true"
       lpeversion="1"
       weight="33.333333"
       steps="2"
       helper_size="0"
       apply_no_weight="true"
       apply_with_weight="true"
       only_selected="false" />
    <inkscape:path-effect
       effect="bspline"
       id="path-effect6334"
       is_visible="true"
       lpeversion="1"
       weight="33.333333"
       steps="2"
       helper_size="0"
       apply_no_weight="true"
       apply_with_weight="true"
       only_selected="false" />
    <inkscape:path-effect
       effect="bspline"
       id="path-effect6330"
       is_visible="true"
       lpeversion="1"
       weight="33.333333"
       steps="2"
       helper_size="0"
       apply_no_weight="true"
       apply_with_weight="true"
       only_selected="false" />
    <inkscape:path-effect
       effect="bspline"
       id="path-effect6326"
       is_visible="true"
       lpeversion="1"
       weight="33.333333"
       steps="2"
       helper_size="0"
       apply_no_weight="true"
       apply_with_weight="true"
       only_selected="false" />
    <inkscape:path-effect
       effect="bspline"
       id="path-effect6268"
       is_visible="true"
       lpeversion="1"
       weight="33.333333"
       steps="2"
       helper_size="0"
       apply_no_weight="true"
       apply_with_weight="true"
       only_selected="false" />
    <inkscape:path-effect
       effect="bspline"
       id="path-effect6102"
       is_visible="true"
       lpeversion="1"
       weight="33.333333"
       steps="2"
       helper_size="0"
       apply_no_weight="true"
       apply_with_weight="true"
       only_selected="false" />
    <inkscape:path-effect
       effect="bspline"
       id="path-effect2071"
       is_visible="true"
       lpeversion="1"
       weight="33.333333"
       steps="2"
       helper_size="0"
       apply_no_weight="true"
       apply_with_weight="true"
       only_selected="false" />
    <inkscape:path-effect
       effect="bspline"
       id="path-effect2013"
       is_visible="true"
       lpeversion="1"
       weight="33.333333"
       steps="2"
       helper_size="0"
       apply_no_weight="true"
       apply_with_weight="true"
       only_selected="false" />
    <inkscape:path-effect
       effect="bspline"
       id="path-effect1955"
       is_visible="true"
       lpeversion="1"
       weight="33.333333"
       steps="2"
       helper_size="0"
       apply_no_weight="true"
       apply_with_weight="true"
       only_selected="false" />
    <inkscape:path-effect
       effect="bspline"
       id="path-effect1951"
       is_visible="true"
       lpeversion="1"
       weight="33.333333"
       steps="2"
       helper_size="0"
       apply_no_weight="true"
       apply_with_weight="true"
       only_selected="false" />
    <inkscape:path-effect
       effect="bspline"
       id="path-effect1839"
       is_visible="true"
       lpeversion="1"
       weight="33.333333"
       steps="2"
       helper_size="0"
       apply_no_weight="true"
       apply_with_weight="true"
       only_selected="false" />
    <inkscape:path-effect
       effect="bspline"
       id="path-effect1727"
       is_visible="true"
       lpeversion="1"
       weight="33.333333"
       steps="2"
       helper_size="0"
       apply_no_weight="true"
       apply_with_weight="true"
       only_selected="false" />
    <inkscape:path-effect
       effect="bspline"
       id="path-effect1723"
       is_visible="true"
       lpeversion="1"
       weight="33.333333"
       steps="2"
       helper_size="0"
       apply_no_weight="true"
       apply_with_weight="true"
       only_selected="false" />
    <inkscape:path-effect
       effect="bspline"
       id="path-effect1719"
       is_visible="true"
       lpeversion="1"
       weight="33.333333"
       steps="2"
       helper_size="0"
       apply_no_weight="true"
       apply_with_weight="true"
       only_selected="false" />
    <inkscape:path-effect
       effect="bspline"
       id="path-effect1661"
       is_visible="true"
       lpeversion="1"
       weight="33.333333"
       steps="2"
       helper_size="0"
       apply_no_weight="true"
       apply_with_weight="true"
       only_selected="false" />
    <inkscape:path-effect
       effect="bspline"
       id="path-effect1549"
       is_visible="true"
       lpeversion="1"
       weight="33.333333"
       steps="2"
       helper_size="0"
       apply_no_weight="true"
       apply_with_weight="true"
       only_selected="false" />
    <inkscape:path-effect
       effect="bspline"
       id="path-effect1545"
       is_visible="true"
       lpeversion="1"
       weight="33.333333"
       steps="2"
       helper_size="0"
       apply_no_weight="true"
       apply_with_weight="true"
       only_selected="false" />
  </defs>
  <sodipodi:namedview
     id="namedview11"
     pagecolor="#ffffff"
     bordercolor="#000000"
     borderopacity="0.25"
     inkscape:showpageshadow="2"
     inkscape:pageopacity="0.0"
     inkscape:pagecheckerboard="0"
     inkscape:deskcolor="#d1d1d1"
     showgrid="false"
     inkscape:zoom="0.56527778"
     inkscape:cx="127.37101"
     inkscape:cy="511.25307"
     inkscape:window-width="1920"
     inkscape:window-height="1017"
     inkscape:window-x="-8"
     inkscape:window-y="-8"
     inkscape:window-maximized="1"
     inkscape:current-layer="g15" />
  <g
     inkscape:groupmode="layer"
     inkscape:label="Image"
     id="g15">
    <path
       style="fill:#020000;fill-opacity:1;stroke:#999999;stroke-opacity:1;stroke-width:9.3;stroke-dasharray:none"
       d="m 114.35343,412.48528 c -2.39762,4.06479 -8.02667,8.44294 -12.61352,14.69782 -4.586846,6.25488 -8.130993,14.38557 -10.111512,22.51676 -1.980519,8.13118 -2.397478,16.26187 -1.667575,23.66322 0.729902,7.40136 2.606216,14.0727 5.629542,20.01449 3.023326,5.94179 7.192915,11.15377 12.196715,15.63603 5.0038,4.48226 10.84123,8.23489 18.24234,9.5896 7.40111,1.35471 16.36572,0.31231 25.22613,-2.39807 8.8604,-2.71038 17.61654,-7.08845 24.80899,-14.07249 7.19245,-6.98404 12.82139,-16.57409 16.15718,-25.95566 3.33579,-9.38158 4.37818,-18.55466 3.33596,-28.56183 -1.04223,-10.00716 -4.16942,-20.84809 -8.75582,-29.60454 -4.58639,-8.75644 -10.6323,-15.42779 -16.7825,-20.43163 -6.15021,-5.00385 -12.40459,-8.33951 -18.55507,-9.69502 -6.15048,-1.3555 -12.19638,-0.73006 -17.20013,0.10384 -5.00374,0.8339 -8.96485,1.8763 -11.98831,4.06563 -3.02346,2.18934 -5.10825,5.52501 -5.73348,9.06972 -0.62523,3.5447 0.20869,7.29734 -2.18894,11.36213 z"
       id="path1543"
       inkscape:path-effect="#path-effect1545"
       inkscape:original-d="m 117.58473,412.17202 c -5.62806,4.37916 -11.25711,8.75731 -16.88717,13.13447 -3.543285,8.13202 -7.087436,16.26271 -10.632657,24.39257 -0.415975,8.13203 -0.832934,16.26272 -1.250901,24.39258 1.877389,6.67261 3.753704,13.34395 5.629056,20.01443 4.170757,5.21319 8.340342,10.42517 12.509012,15.63626 5.83865,3.75378 11.67608,7.50641 17.51262,11.25812 8.96597,-1.04144 17.93058,-2.08384 26.89438,-3.12726 8.75748,-4.37724 17.51362,-8.75531 26.26893,-13.13446 5.63017,-9.58944 11.25911,-19.17949 16.88717,-28.77074 1.04344,-9.17246 2.08583,-18.34555 3.12725,-27.51983 -3.12631,-10.84036 -6.25351,-21.68129 -9.38176,-32.52343 -6.04514,-6.67061 -12.09105,-13.34195 -18.13807,-20.01443 -6.25363,-3.3348 -12.50801,-6.67047 -18.76352,-10.00721 -6.04515,0.62646 -12.09105,1.2519 -18.13807,1.87635 -3.96027,1.04344 -7.92138,2.08584 -11.88357,3.12726 -2.08387,3.3368 -4.16867,6.67247 -6.2545,10.00721 0.83495,3.75378 1.66887,7.50641 2.5018,11.25811 z" />
    <path
       style="fill:#f8f7f7;fill-opacity:1"
       d="m 149.3792,427.49619 c -2.81419,-2.39813 -6.98387,-2.60661 -11.77966,1.56325 -4.79578,4.16986 -10.21624,12.71751 -13.0307,20.74456 -2.81446,8.02705 -3.02294,15.5323 -1.77154,20.84871 1.25141,5.31641 3.96164,8.44361 6.98462,9.69389 3.02297,1.25029 6.35864,0.62485 10.11104,-1.45998 3.7524,-2.08484 7.9219,-5.62892 10.63212,-10.21524 2.71021,-4.58632 3.96108,-10.21526 4.4824,-15.323 0.52131,-5.10775 0.31283,-9.6943 -0.52095,-14.2809 -0.83378,-4.58661 -2.29314,-9.17315 -5.10733,-11.57129 z"
       id="path1547"
       inkscape:path-effect="#path-effect1549"
       inkscape:original-d="m 150.73363,425.30649 c -4.16867,-0.20749 -8.33835,-0.41597 -12.50902,-0.62545 -5.41968,8.549 -10.84014,17.09665 -16.26172,25.64348 -0.20748,7.50656 -0.41596,15.01181 -0.62545,22.51622 2.71134,3.12832 5.42158,6.25551 8.13086,9.38176 3.33681,-0.62446 6.67248,-1.2499 10.00721,-1.87635 4.17076,-3.54329 8.34027,-7.08737 12.50902,-10.63266 1.25193,-5.62817 2.5028,-11.25711 3.7527,-16.88717 -0.20748,-4.58573 -0.41596,-9.17228 -0.62545,-13.75992 -1.45841,-4.58573 -2.91777,-9.17227 -4.37815,-13.75991 z"
       sodipodi:nodetypes="cccccccccc" />
    <path
       style="fill:#030303;fill-opacity:1;stroke-width:9.3;stroke-dasharray:none;stroke:#9a9a9a;stroke-opacity:1"
       d="m 174.29279,507.44988 c 0.83334,-22.72466 3.96059,-67.13166 6.14961,-90.89901 2.18902,-23.76736 3.4399,-26.89455 5.52491,-29.7094 2.08501,-2.81485 5.00372,-5.3166 8.65277,-6.04611 3.64905,-0.72951 8.02712,0.31289 12.40511,4.17034 4.37799,3.85745 8.75606,10.5288 13.55112,19.9107 4.79505,9.38191 10.00704,21.47371 12.9255,27.10223 2.91845,5.62853 3.54389,4.79461 4.58633,-1.98087 1.04244,-6.77549 2.5018,-19.49274 3.85692,-28.66613 1.35512,-9.1734 2.606,-14.80235 4.89964,-18.4513 2.29363,-3.64894 5.6293,-5.31678 10.84182,-3.43985 5.21251,1.87693 12.30082,7.2974 16.05313,10.73756 3.75232,3.44016 4.16928,4.89952 4.06479,7.08841 -0.1045,2.18888 -0.72994,5.10759 -1.4596,11.8835 -0.72965,6.77591 -1.56357,17.40836 -3.12724,31.06416 -1.56367,13.65581 -3.85695,30.33416 -6.46306,43.78136 -2.60611,13.4472 -5.52482,23.66269 -8.65166,29.18709 -3.12683,5.52441 -6.4625,6.35833 -10.21504,5.21214 -3.75254,-1.14618 -7.92213,-4.27337 -12.82173,-10.21508 -4.89961,-5.94171 -10.52856,-14.69785 -14.07287,-20.5354 -3.5443,-5.83754 -5.00366,-8.75626 -6.35892,-9.90361 -1.35526,-1.14735 -2.60613,-0.52191 -3.33604,2.29324 -0.72992,2.81516 -0.9384,7.81867 -1.56389,14.80291 -0.62549,6.98425 -1.66789,15.94886 -5.21197,22.20288 -3.54408,6.25401 -9.58998,9.79816 -14.6976,11.88304 -5.10763,2.08487 -9.27722,2.71031 -12.09161,2.50228 -2.81439,-0.20803 -4.27375,-1.25042 -3.44042,-23.97508 z"
       id="path1659"
       inkscape:path-effect="#path-effect1661"
       inkscape:original-d="m 171.99894,529.13131 c 3.12826,-44.40601 6.25551,-88.81301 9.38176,-133.22101 1.25193,-3.12631 2.50281,-6.2535 3.75271,-9.38176 2.91983,-2.50085 5.83854,-5.0026 8.75631,-7.50541 4.37924,1.04344 8.75731,2.08584 13.13446,3.12726 4.37925,6.6726 8.75731,13.34395 13.13447,20.01442 5.21319,12.09329 10.42518,24.18509 15.63627,36.27614 0.62646,-0.83295 1.2519,-1.66687 1.87635,-2.5018 1.46041,-12.71675 2.91977,-25.434 4.37815,-38.1525 1.25193,-5.62816 2.50281,-11.25711 3.75271,-16.88716 3.3368,-1.66691 6.67247,-3.33474 10.00721,-5.00361 7.08958,5.42168 14.17788,10.84215 21.26532,16.26172 0.41798,1.46041 0.83494,2.91977 1.2509,4.37815 -0.62446,2.91983 -1.2499,5.83854 -1.87635,8.75631 -0.83295,10.63388 -1.66687,21.26633 -2.5018,31.89799 -2.29237,16.68002 -4.58564,33.35837 -6.87996,50.03606 -2.91783,10.2169 -5.83654,20.43239 -8.75631,30.64708 -3.3348,0.83495 -6.67047,1.66887 -10.00721,2.50181 -4.16875,-3.12632 -8.33834,-6.25351 -12.50901,-9.38177 -5.62817,-8.75548 -11.25712,-17.51162 -16.88717,-26.26893 -1.45842,-2.91782 -2.91777,-5.83654 -4.37816,-8.75631 -1.24993,0.62647 -2.5008,1.25191 -3.7527,1.87636 -0.20749,5.0047 -0.41597,10.00821 -0.62545,15.01081 -1.04144,8.96598 -2.08384,17.93059 -3.12726,26.89438 -6.04514,3.5453 -12.09104,7.08945 -18.13807,10.63267 -4.16875,0.62646 -8.33834,1.2519 -12.50901,1.87635 -1.45842,-1.04144 -2.91777,-2.08384 -4.37816,-3.12725 z" />
    <path
       style="fill:#020000;fill-opacity:1;stroke:#999999;stroke-width:9.3;stroke-dasharray:none;stroke-opacity:1"
       d="m 348.16784,406.96038 c 1.25077,-4.37751 0.41683,-11.46595 -2.81425,-15.21917 -3.23108,-3.75322 -8.86003,-4.17017 -15.63602,-3.33635 -6.77598,0.83383 -14.69819,2.91861 -19.38919,4.27375 -4.691,1.35514 -6.15036,1.98058 -8.54762,1.14712 -2.39726,-0.83346 -5.73293,-3.12673 -9.38198,-2.50167 -3.64904,0.62507 -7.61015,4.16922 -10.8418,8.33915 -3.23165,4.16993 -5.7334,8.96496 -7.92249,15.01122 -2.18909,6.04626 -4.0654,13.34304 -5.52476,21.57832 -1.45935,8.23527 -2.50175,17.40837 -3.43993,26.06053 -0.93818,8.65216 -1.7721,16.78285 -1.77193,22.93329 1.7e-4,6.15044 0.83409,10.32003 2.50213,15.21948 1.66805,4.89945 4.1698,10.52839 8.02712,14.80206 3.85733,4.27367 9.06932,7.19239 14.38568,9.17277 5.31637,1.98038 10.73683,3.02277 15.53187,3.33534 4.79503,0.31257 8.96462,-0.10439 13.86377,-1.87658 4.89914,-1.7722 10.52808,-4.89938 15.74012,-8.33936 5.21203,-3.43998 10.00706,-7.19261 12.09186,-13.44662 2.0848,-6.254 1.45937,-15.01014 0.52127,-22.20283 -0.9381,-7.19269 -2.18898,-12.82164 -4.79504,-14.49016 -2.60606,-1.66851 -6.56716,0.62476 -11.36238,3.64782 -4.79522,3.02307 -10.42417,6.7757 -14.28119,9.48603 -3.85702,2.71033 -5.94181,4.37816 -7.92206,3.96178 -1.98026,-0.41638 -3.85657,-2.91813 -4.79517,-7.50489 -0.9386,-4.58677 -0.9386,-11.25812 1.66786,-15.2199 2.60646,-3.96179 7.81844,-5.21266 12.92613,-7.29753 5.1077,-2.08487 10.1112,-5.00358 12.61285,-7.92179 2.50165,-2.91821 2.50165,-5.83692 1.66795,-9.27684 -0.83369,-3.43991 -2.50153,-7.40102 -6.67111,-8.86107 -4.16958,-1.46004 -10.84092,-0.41764 -14.59366,-0.52125 -3.75274,-0.10362 -4.58666,-1.3545 -4.58711,-2.60587 -4.5e-4,-1.25138 0.83346,-2.50225 5.10794,-3.75335 4.27448,-1.25109 11.98822,-2.50197 17.51297,-3.64867 5.52475,-1.1467 8.86042,-2.1891 12.19607,-3.54426 3.33566,-1.35516 6.67133,-3.023 7.9221,-7.4005 z"
       id="path1717"
       inkscape:path-effect="#path-effect1719"
       inkscape:original-d="m 350.25241,409.67021 c -0.83293,-7.08744 -1.66687,-14.17588 -2.5018,-21.26532 -5.62817,-0.41598 -11.25712,-0.83294 -16.88717,-1.2509 -7.92154,2.08588 -15.84375,4.17067 -23.76713,6.2545 -1.45841,0.62647 -2.91777,1.25191 -4.37815,1.87636 -3.33481,-2.29237 -6.67048,-4.58564 -10.00722,-6.87996 -3.96026,3.54529 -7.92137,7.08944 -11.88356,10.63266 -2.50085,4.79622 -5.0026,9.59125 -7.50541,14.38537 -1.87539,7.29807 -3.7517,14.59485 -5.62905,21.89077 -1.04144,9.17446 -2.08384,18.34756 -3.12726,27.51983 -0.83295,8.13203 -1.66687,16.26272 -2.5018,24.39258 0.83495,4.17076 1.66887,8.34035 2.5018,12.50902 2.50286,5.63017 5.00461,11.25911 7.50541,16.88717 5.21319,2.91982 10.42518,5.83854 15.63627,8.75631 5.42168,1.04343 10.84214,2.08583 16.26172,3.12725 4.17075,-0.41598 8.34034,-0.83293 12.50901,-1.2509 5.63017,-3.12632 11.25911,-6.25351 16.88717,-9.38176 4.79622,-3.75178 9.59125,-7.50441 14.38537,-11.25812 -0.62447,-8.75548 -1.2499,-17.51162 -1.87635,-26.26893 -1.24993,-5.62816 -2.50081,-11.25711 -3.75271,-16.88717 -3.96027,2.29437 -7.92137,4.58764 -11.88356,6.87996 -5.62817,3.75378 -11.25712,7.50641 -16.88717,11.25812 -2.08388,1.6689 -4.16867,3.33673 -6.25451,5.0036 -1.87539,-2.50085 -3.7517,-5.0026 -5.62906,-7.50541 0.001,-6.6706 0.001,-13.34195 0,-20.01442 5.2132,-1.24993 10.42518,-2.5008 15.63627,-3.7527 5.00471,-2.91783 10.00821,-5.83654 15.01082,-8.75631 10e-4,-2.91783 10e-4,-5.83654 0,-8.75631 -1.6669,-3.96027 -3.33474,-7.92138 -5.00361,-11.88357 -6.6706,1.04344 -13.34194,2.08584 -20.01442,3.12726 -0.83295,-1.24993 -1.66687,-2.50081 -2.5018,-3.75271 0.83495,-1.24993 1.66887,-2.5008 2.5018,-3.7527 7.71505,-1.24993 15.42879,-2.50081 23.14168,-3.75271 3.3368,-1.04144 6.67247,-2.08383 10.00721,-3.12725 3.3368,-1.6669 6.67247,-3.33474 10.00721,-5.00361 z" />
    <path
       style="fill:#020000;fill-opacity:1;stroke:#999999;stroke-width:9.3;stroke-dasharray:none;stroke-opacity:1"
       d="m 457.72603,384.65229 c -3.85747,3.54442 -7.81866,10.2159 -11.25867,18.86826 -3.44001,8.65236 -6.35873,19.28481 -8.96479,29.39639 -2.60606,10.11157 -4.89933,19.70162 -6.98418,29.29199 -2.08484,9.59037 -3.96115,19.18041 -4.89925,25.7478 -0.9381,6.56738 -0.9381,10.11153 7e-4,12.30038 0.9388,2.18886 2.81511,3.02277 6.56774,3.33521 3.75264,0.31244 9.38159,0.10396 11.77856,0.83388 2.39697,0.72993 1.56305,2.39777 -0.62567,3.85687 -2.18872,1.45909 -5.73287,2.70997 -10.42407,5.94159 -4.6912,3.23162 -10.52862,8.44361 -12.40444,11.15398 -1.87582,2.71037 0.20898,2.91885 5.42117,3.64858 5.21219,0.72973 13.55136,1.98061 21.36949,2.50172 7.81813,0.5211 15.11491,0.31263 21.78613,-1.4596 6.67122,-1.77222 12.71712,-5.10789 19.28426,-10.31995 6.56713,-5.21207 13.65543,-12.30037 18.76322,-18.55477 5.10778,-6.2544 8.23498,-11.67487 10.5283,-16.67837 2.29333,-5.0035 3.75269,-9.59005 5.00365,-17.40816 1.25097,-7.8181 2.29337,-18.86751 1.98082,-27.62375 -0.31255,-8.75623 -1.98038,-15.21909 -5.10743,-21.68217 -3.12704,-6.46307 -7.71359,-12.92593 -13.7595,-18.34677 -6.04592,-5.42084 -13.55118,-9.79891 -19.90997,-12.82209 -6.35879,-3.02319 -11.57077,-4.69102 -16.05337,-5.31671 -4.48259,-0.62568 -8.23522,-0.20872 -12.0927,3.33569 z"
       id="path1721"
       inkscape:path-effect="#path-effect1723"
       inkscape:original-d="m 457.82992,381.52494 c -3.96018,6.67247 -7.92137,13.34395 -11.88356,20.01442 -2.91783,10.63388 -5.83654,21.26633 -8.75631,31.89799 -2.29236,9.59144 -4.58564,19.18149 -6.87996,28.77073 -1.87539,9.59144 -3.7517,19.18149 -5.62905,28.77074 10e-4,3.54529 10e-4,7.08944 0,10.63266 1.87739,0.83495 3.7537,1.66887 5.62905,2.5018 5.63017,-0.20749 11.25912,-0.41597 16.88717,-0.62545 -0.83295,1.6689 -1.66687,3.33674 -2.5018,5.00361 -3.54329,1.25192 -7.08744,2.5028 -10.63266,3.7527 -5.83666,5.21319 -11.67408,10.42518 -17.51262,15.63627 2.08587,0.20949 4.17067,0.41797 6.2545,0.62545 8.34051,1.25193 16.67969,2.5028 25.01803,3.7527 7.29807,-0.20748 14.59485,-0.41596 21.89078,-0.62545 6.04714,-3.3348 12.09304,-6.67047 18.13807,-10.00721 7.08958,-7.08758 14.17788,-14.17588 21.26532,-21.26532 3.12832,-5.41968 6.25551,-10.84015 9.38176,-16.26172 1.46042,-4.58573 2.91977,-9.17228 4.37816,-13.75992 1.04344,-11.04885 2.08583,-22.09826 3.12725,-33.14889 -1.6669,-6.46212 -3.33474,-12.92498 -5.0036,-19.38897 -4.58573,-6.46212 -9.17228,-12.92498 -13.75992,-19.38897 -7.50456,-4.37724 -15.00982,-8.75531 -22.51623,-13.13447 -5.21119,-1.6669 -10.42317,-3.33473 -15.63626,-5.0036 -3.75178,0.41797 -7.50441,0.83493 -11.25812,1.2509 z" />
    <path
       style="fill:#f9f9f9;fill-opacity:1;stroke:none;stroke-width:9.3;stroke-dasharray:none;stroke-opacity:1"
       d="m 476.59395,416.13382 c -2.71098,4.79514 -6.04665,15.42758 -9.27821,26.16472 -3.23156,10.73714 -6.35868,21.57785 -8.13077,29.81324 -1.77208,8.2354 -2.18904,13.86435 -2.08446,16.57407 0.10458,2.70972 0.73002,2.50124 3.85749,2.18858 3.12747,-0.31266 8.7563,-0.72961 13.02984,-2.39748 4.27354,-1.66787 7.19219,-4.58652 9.79819,-8.44333 2.60599,-3.85681 4.89922,-8.65174 6.77563,-14.385 1.87641,-5.73325 3.33573,-12.40446 2.71055,-19.80555 -0.62518,-7.40109 -3.33542,-15.53179 -5.31596,-21.05663 -1.98055,-5.52483 -3.23142,-8.44354 -4.89897,-10.42445 -1.66755,-1.98091 -3.75234,-3.0233 -6.46333,1.77183 z"
       id="path1725"
       inkscape:path-effect="#path-effect1727"
       inkscape:original-d="m 477.2189,410.29567 c -3.33474,10.63366 -6.67041,21.2661 -10.00721,31.89798 -3.12632,10.84237 -6.25345,21.68308 -9.38176,32.52344 -0.41598,5.63017 -0.83293,11.25912 -1.2509,16.88717 0.62646,-0.20749 1.2519,-0.41597 1.87635,-0.62545 5.63017,-0.41598 11.259,-0.83293 16.88717,-1.2509 2.91983,-2.91783 5.83848,-5.83648 8.75631,-8.75631 2.29436,-4.79422 4.58759,-9.58915 6.87996,-14.38537 1.46041,-6.67061 2.91973,-13.34182 4.37815,-20.01443 -2.70934,-8.13002 -5.41958,-16.26072 -8.13086,-24.39257 -1.24993,-2.91783 -2.5008,-5.83654 -3.7527,-8.75631 -2.08388,-1.04144 -4.16867,-2.08384 -6.25451,-3.12725 z"
       sodipodi:nodetypes="cccccccccccc" />
    <path
       style="fill:#000000;fill-opacity:1;stroke:#999999;stroke-width:9.3;stroke-dasharray:none;stroke-opacity:1"
       d="m 533.30166,404.8754 c -3.12773,0.20804 -6.46347,2.50135 -8.75699,6.1503 -2.29353,3.64894 -3.54441,8.65245 -5.21229,16.05373 -1.66788,7.40129 -3.75267,17.19982 -5.83752,28.45809 -2.08484,11.25827 -4.16964,23.97551 -5.21199,34.50411 -1.04235,10.5286 -1.04235,18.86777 -0.10363,23.87136 0.93873,5.0036 2.81504,6.67143 5.52542,7.92201 2.71038,1.25058 6.25453,2.0845 9.38183,3.02278 3.12729,0.93828 5.83753,1.98068 8.75591,1.6676 2.91838,-0.31307 6.04557,-1.98091 8.02595,-7.71375 1.98038,-5.73284 2.8143,-15.53137 3.96095,-24.91327 1.14664,-9.3819 2.606,-18.34651 3.96116,-26.79017 1.35515,-8.44366 2.60603,-16.36588 3.23154,-22.82883 0.62552,-6.46295 0.62552,-11.46646 -0.93785,-17.19972 -1.56336,-5.73327 -4.69055,-12.19613 -7.71331,-16.36604 -3.02275,-4.16992 -5.94146,-6.04623 -9.06918,-5.8382 z"
       id="path1837"
       inkscape:path-effect="#path-effect1839"
       inkscape:original-d="m 533.50945,402.79027 c -3.33473,2.29432 -6.67047,4.58763 -10.00721,6.87995 -1.24993,5.00471 -2.5008,10.00822 -3.7527,15.01082 -2.08388,9.79993 -4.16867,19.59846 -6.25451,29.39618 -2.08388,12.71876 -4.16867,25.436 -6.25451,38.1525 10e-4,8.34051 10e-4,16.67968 0,25.01803 1.87739,1.6689 3.75371,3.33673 5.62906,5.0036 3.54529,0.83495 7.08944,1.66887 10.63266,2.50181 2.71134,1.04343 5.42157,2.08583 8.13086,3.12725 3.12832,-1.6669 6.25551,-3.33474 9.38176,-5.00361 0.83495,-9.79792 1.66887,-19.59645 2.5018,-29.39618 1.46042,-8.96397 2.91977,-17.92859 4.37816,-26.89438 1.25193,-7.92153 2.5028,-15.84375 3.7527,-23.76713 10e-4,-5.0027 10e-4,-10.00621 0,-15.01082 -3.12631,-6.46212 -6.2535,-12.92498 -9.38176,-19.38897 -2.91783,-1.87539 -5.83654,-3.7517 -8.75631,-5.62905 z" />
    <path
       style="fill:#000000;fill-opacity:1;stroke:#999999;stroke-width:9.3;stroke-dasharray:none;stroke-opacity:1"
       d="m 571.66231,385.6952 c -2.71065,-0.83452 -5.42093,1.87576 -7.92286,7.08826 -2.50192,5.21249 -4.79519,12.92623 -6.87998,17.82532 -2.08478,4.89909 -3.96109,6.98388 -4.37781,9.48628 -0.41672,2.5024 0.62568,5.42112 0.10416,12.40522 -0.52152,6.9841 -2.60631,18.0335 -5.00392,28.56198 -2.39761,10.52847 -5.10784,20.53548 -7.08843,28.87494 -1.98058,8.33946 -3.23146,15.0108 -4.37813,21.05688 -1.14667,6.04607 -2.18907,11.46654 -2.18882,16.05342 2.5e-4,4.58688 1.04265,8.33951 2.81522,10.73673 1.77258,2.39723 4.27433,3.43963 6.2548,4.79507 1.98047,1.35544 3.43983,3.02328 5.10722,2.81427 1.6674,-0.20901 3.54372,-2.29381 5.52432,-4.58713 1.9806,-2.29332 4.06539,-4.79507 6.56768,-6.25457 2.50229,-1.4595 5.42101,-1.87646 7.29691,-6.87965 1.8759,-5.00318 2.70982,-14.59323 3.44015,-19.28437 0.73034,-4.69113 1.35578,-4.48265 2.81496,-2.60588 1.45919,1.87676 3.75246,5.42091 7.40098,10.9458 3.64852,5.52488 8.65203,13.03014 13.76008,19.0761 5.10804,6.04596 10.32002,10.63251 15.63648,14.0723 5.31646,3.43979 10.73693,5.73306 16.88709,6.46244 6.15017,0.72937 13.02999,-0.10454 17.61619,-1.77236 4.58621,-1.66781 6.87948,-4.16957 8.02616,-7.08789 1.14668,-2.91833 1.14668,-6.254 -1.77156,-9.69416 -2.91824,-3.44015 -8.75567,-6.98431 -14.28063,-11.4666 -5.52496,-4.4823 -10.73694,-9.90277 -14.69831,-15.01058 -3.96137,-5.10781 -6.6716,-9.90284 -8.96503,-14.59376 -2.29343,-4.69091 -4.16974,-9.27745 -5.10817,-13.55151 -0.93842,-4.27406 -0.93842,-8.23517 -0.20855,-10.63333 0.72986,-2.39816 2.18922,-3.23208 5.31653,-5.00422 3.1273,-1.77213 7.92233,-4.48237 12.1961,-7.81804 4.27377,-3.33567 8.0264,-7.29678 10.84086,-11.46626 2.81445,-4.16949 4.69077,-8.54756 5.8375,-13.65524 1.14674,-5.10769 1.5637,-10.94512 0.52163,-16.05288 -1.04208,-5.10775 -3.54383,-9.48582 -6.8794,-13.34295 -3.33557,-3.85714 -7.50516,-7.19281 -11.77905,-9.79905 -4.2739,-2.60624 -8.65197,-4.48256 -13.34305,-5.21254 -4.69108,-0.72999 -9.69459,-0.31303 -15.01111,0.72934 -5.31651,1.04238 -10.94546,2.71022 -13.65557,3.54425 -2.7101,0.83403 -2.50162,0.83403 -3.75269,-1.35451 -1.25106,-2.18853 -3.9613,-6.5666 -6.67195,-7.40112 z"
       id="path1949"
       inkscape:path-effect="#path-effect1951"
       inkscape:original-d="m 571.66195,382.15039 c -2.70929,2.71129 -5.41957,5.42158 -8.13086,8.13086 -2.29237,7.71505 -4.58564,15.42879 -6.87996,23.14168 -1.87539,2.08588 -3.7517,4.17067 -5.62905,6.25451 1.04343,2.91982 2.08583,5.83854 3.12725,8.75631 -2.08388,11.05085 -4.16867,22.10025 -6.25451,33.14888 -2.70934,10.00842 -5.41957,20.01543 -8.13086,30.02164 -1.24992,6.67261 -2.5008,13.34395 -3.7527,20.01442 -1.04144,5.42168 -2.08384,10.84215 -3.12726,16.26172 1.04344,3.75378 2.08584,7.50641 3.12726,11.25811 2.50285,1.04344 5.0046,2.08584 7.50541,3.12726 1.46041,1.6689 2.91977,3.33673 4.37815,5.0036 1.87739,-2.08388 3.75371,-4.16867 5.62906,-6.25451 2.08588,-2.50085 4.17067,-5.0026 6.25451,-7.5054 2.91982,-0.41598 5.83854,-0.83294 8.75631,-1.25091 0.83495,-9.58943 1.66886,-19.17948 2.5018,-28.77073 0.62646,0.20949 1.2519,0.41797 1.87635,0.62545 2.29437,3.54529 4.58764,7.08944 6.87996,10.63266 5.0047,7.50656 10.00821,15.01182 15.01082,22.51623 5.21319,4.58773 10.42517,9.17428 15.63626,13.75992 5.42168,2.29436 10.84215,4.58763 16.26172,6.87995 6.8811,-0.83295 13.76092,-1.66686 20.63988,-2.5018 2.29436,-2.50085 4.58763,-5.0026 6.87995,-7.50541 10e-4,-3.3348 10e-4,-6.67047 0,-10.00721 -5.83665,-3.54329 -11.67408,-7.08744 -17.51262,-10.63266 -5.21119,-5.41968 -10.42317,-10.84015 -15.63626,-16.26172 -2.70934,-4.79422 -5.41958,-9.58924 -8.13086,-14.38537 -1.87539,-4.58573 -3.75171,-9.17227 -5.62906,-13.75991 10e-4,-3.96027 10e-4,-7.92138 0,-11.88357 1.46041,-0.83295 2.91977,-1.66686 4.37816,-2.5018 4.79621,-2.70934 9.59124,-5.41957 14.38536,-8.13086 3.75378,-3.96027 7.50641,-7.92137 11.25811,-11.88356 1.87739,-4.37724 3.75371,-8.75531 5.62906,-13.13447 0.41798,-5.83665 0.83494,-11.67408 1.2509,-17.51262 -2.50085,-4.37724 -5.0026,-8.75531 -7.50541,-13.13446 -4.16875,-3.33481 -8.33834,-6.67048 -12.50901,-10.00721 -4.37724,-1.87539 -8.75531,-3.75171 -13.13447,-5.62906 -5.0027,0.41798 -10.00621,0.83493 -15.01081,1.2509 -5.62817,1.6689 -11.25712,3.33674 -16.88717,5.00361 0.20949,0.001 0.41797,0.001 0.62545,0 -2.70934,-4.37724 -5.41957,-8.75531 -8.13086,-13.13447 z" />
    <path
       style="fill:#efefef;fill-opacity:1;stroke:none;stroke-width:9.3;stroke-dasharray:none;stroke-opacity:1"
       d="m 607.73002,429.99761 c -2.50119,-2.39777 -9.58962,-2.60626 -14.59368,-1.66814 -5.00405,0.93811 -7.92277,3.02291 -9.79927,7.71437 -1.87651,4.69145 -2.71041,11.98806 -2.29341,14.69801 0.41701,2.70994 2.08483,0.83364 4.69107,-1.25133 2.60623,-2.08498 6.15038,-4.37825 9.69495,-5.73337 3.54457,-1.35512 7.08864,-1.77207 9.90269,-4.27364 2.81404,-2.50158 4.89884,-7.08813 2.39765,-9.4859 z"
       id="path2011"
       inkscape:path-effect="#path-effect2013"
       inkscape:original-d="m 612.31625,427.80829 c -7.08745,-0.20748 -14.17588,-0.41597 -21.26533,-0.62545 -2.91782,2.08588 -5.83654,4.17067 -8.75631,6.25451 -0.83295,7.29807 -1.66685,14.59468 -2.5018,21.89078 1.66891,-1.8754 3.33674,-3.7517 5.00361,-5.62906 3.54529,-2.29237 7.08944,-4.58564 10.63266,-6.87996 3.5453,-0.41598 7.08937,-0.83293 10.63266,-1.2509 2.08588,-4.58573 4.17067,-9.17228 6.25451,-13.75992 z"
       sodipodi:nodetypes="cccccccc" />
    <path
       style="fill:#000000;fill-opacity:1;stroke:#999999;stroke-width:9.3;stroke-dasharray:none;stroke-opacity:1"
       d="m 719.16508,410.92162 c -5.73329,-0.62595 -15.94899,-0.62595 -21.89082,-1.56362 -5.94183,-0.93767 -7.60966,-2.81398 -9.69497,-2.60602 -2.08531,0.20795 -4.58706,2.50123 -7.40138,4.27327 -2.81432,1.77204 -5.94152,3.02292 -8.86066,5.73347 -2.91913,2.71056 -5.62936,6.88014 -8.96516,13.03058 -3.3358,6.15043 -7.2969,14.28112 -11.04964,22.30784 -3.75274,8.02672 -7.29689,15.94894 -9.48594,22.93339 -2.18904,6.98446 -3.02296,13.03036 -2.60573,18.76388 0.41722,5.73353 2.08506,11.154 4.06592,15.32365 1.98087,4.16965 4.27415,7.08837 6.77612,9.4858 2.50197,2.39742 5.2122,4.27373 8.33944,5.31578 3.12725,1.04206 6.6714,1.25054 11.25817,2.60594 4.58677,1.35541 10.21571,3.85716 15.63604,4.27375 5.42033,0.41658 10.63232,-1.25125 14.80173,-3.54452 4.16941,-2.29326 7.2966,-5.21197 8.86021,-10.31938 1.56361,-5.10741 1.56361,-12.40418 0.62602,-16.46985 -0.93759,-4.06567 -2.81391,-4.89959 -7.71343,-5.52529 -4.89952,-0.62569 -12.82174,-1.04265 -16.78346,-1.45915 -3.96171,-0.4165 -3.96171,-0.83346 -3.85749,-3.43957 0.10423,-2.60612 0.31271,-7.40115 0.83402,-10.11197 0.52132,-2.71083 1.35524,-3.33627 5.62929,-6.04663 4.27404,-2.71036 11.98778,-7.50539 15.94881,-11.88303 3.96103,-4.37764 4.16951,-8.33875 2.29362,-10.21559 -1.87589,-1.87684 -5.837,-1.66836 -8.23461,-2.08477 -2.3976,-0.4164 -3.23152,-1.4588 -2.39788,-2.81459 0.83363,-1.35578 3.33538,-3.02361 7.71393,-4.17025 4.37855,-1.14663 10.63293,-1.77207 14.38513,-3.02283 3.75219,-1.25076 5.00307,-3.12708 5.62859,-6.25399 0.62553,-3.12691 0.62553,-7.50498 1.25089,-10.94529 0.62537,-3.4403 1.87625,-5.94205 1.87683,-7.81811 5.9e-4,-1.87607 -1.25029,-3.12695 -6.98359,-3.7529 z"
       id="path2069"
       inkscape:path-effect="#path-effect2071"
       inkscape:original-d="m 723.64648,410.29567 c -10.21469,0.001 -20.43039,0.001 -30.64708,0 -1.66691,-1.87539 -3.33474,-3.7517 -5.00361,-5.62906 -2.50085,2.29437 -5.00261,4.58764 -7.50541,6.87996 -3.12631,1.25193 -6.25351,2.50281 -9.38176,3.75271 -2.70934,4.17075 -5.41957,8.34034 -8.13086,12.50901 -3.96027,8.13202 -7.92137,16.26272 -11.88356,24.39258 -3.54329,7.92353 -7.08744,15.84575 -10.63266,23.76713 -0.83296,6.04714 -1.66687,12.09304 -2.50181,18.13807 1.6689,5.42168 3.33674,10.84214 5.00361,16.26172 2.29436,2.91982 4.58764,5.83854 6.87996,8.75631 2.71134,1.87739 5.42157,3.7537 8.13086,5.62905 3.54529,0.20949 7.08944,0.41797 10.63266,0.62545 5.63017,2.50286 11.25911,5.00461 16.88717,7.50541 5.21319,-1.6669 10.42518,-3.33474 15.63627,-5.0036 3.12831,-2.91783 6.2555,-5.83654 9.38176,-8.75631 10e-4,-7.29608 10e-4,-14.59285 0,-21.89078 -1.87539,-0.83295 -3.75171,-1.66687 -5.62906,-2.5018 -7.92153,-0.41598 -15.84375,-0.83294 -23.76713,-1.2509 0.001,-0.41598 0.001,-0.83294 0,-1.25091 0.20949,-4.79421 0.41797,-9.58924 0.62545,-14.38536 0.83495,-0.62446 1.66887,-1.2499 2.50181,-1.87635 7.71504,-4.79422 15.42878,-9.58925 23.14167,-14.38537 0.20949,-3.96027 0.41797,-7.92138 0.62545,-11.88356 -3.96026,0.20948 -7.92137,0.41796 -11.88356,0.62545 -0.83295,-1.04144 -1.66687,-2.08384 -2.5018,-3.12726 2.50285,-1.6669 5.0046,-3.33473 7.50541,-5.0036 6.25563,-0.62447 12.51001,-1.2499 18.76352,-1.87635 1.25192,-1.87539 2.5028,-3.75171 3.7527,-5.62906 10e-4,-4.37724 10e-4,-8.75531 0,-13.13447 1.25193,-2.50085 2.5028,-5.0026 3.75271,-7.5054 -1.24993,-1.24993 -2.50081,-2.50081 -3.75271,-3.75271 z" />
    <path
       style="fill:#070707;fill-opacity:1;stroke:#999999;stroke-width:9.3;stroke-dasharray:none;stroke-opacity:1"
       d="m 773.78688,459.18552 c 1.35509,1.35572 1.56357,5.94236 2.5021,9.59092 0.93853,3.64855 2.60637,6.35878 4.5872,7.92193 1.98082,1.56315 4.2741,1.98011 7.08808,0.41636 2.81397,-1.56375 6.14964,-5.1079 8.96412,-11.15368 2.81447,-6.04579 5.10774,-14.59344 5.52494,-21.57744 0.41721,-6.98401 -1.04215,-12.40448 -3.85635,-16.99127 -2.81421,-4.5868 -6.98379,-8.33942 -11.57047,-10.42469 -4.58667,-2.08527 -9.59018,-2.50222 -13.86431,-2.29386 -4.27412,0.20836 -7.81827,1.04228 -11.36279,2.71019 -3.54452,1.66791 -7.08867,4.16966 -11.3627,7.60972 -4.27402,3.44006 -9.27753,7.81813 -13.44737,13.34324 -4.16984,5.52511 -7.50551,12.19645 -9.59031,18.45124 -2.08481,6.25478 -2.91873,12.09221 -3.54417,16.78314 -0.62545,4.69093 -1.04241,8.23508 -0.93804,12.6134 0.10436,4.37832 0.7298,9.59031 2.91918,15.5322 2.18939,5.94189 5.94202,12.61323 9.4865,17.19972 3.54448,4.58649 6.88015,7.08825 11.67538,9.48563 4.79522,2.39739 11.04961,4.69066 17.0956,5.94136 6.046,1.2507 11.88342,1.45918 17.09544,1.14636 5.21201,-0.31283 9.79856,-1.14675 15.11473,-3.23164 5.31616,-2.08489 11.36206,-5.42056 15.53158,-8.23502 4.16952,-2.81445 6.4628,-5.10773 7.08838,-8.44292 0.62558,-3.3352 -0.41681,-7.71327 -2.50139,-11.88301 -2.08457,-4.16975 -5.21176,-8.13086 -8.54737,-10.63304 -3.33561,-2.50219 -6.87976,-3.54459 -10.84151,-2.39813 -3.96176,1.14646 -8.33982,4.48213 -11.8841,7.2967 -3.54428,2.81457 -6.25451,5.10784 -8.54735,6.15036 -2.29283,1.04251 -4.16914,0.83404 -6.14994,-0.93758 -1.9808,-1.77162 -4.06559,-5.1073 -5.42099,-8.33883 -1.3554,-3.23154 -1.98084,-6.35873 -2.18946,-9.6946 -0.20863,-3.33588 -1.5e-4,-6.88003 0.83373,-10.84144 0.83387,-3.9614 2.29323,-8.33946 4.27402,-11.4671 1.9808,-3.12763 4.48256,-5.00395 5.83764,-3.64822 z"
       id="path6266"
       inkscape:path-effect="#path-effect6268"
       inkscape:original-d="m 774.93344,455.95356 c 0.20948,4.58764 0.41797,9.17428 0.62545,13.75992 1.6689,2.71134 3.33674,5.42157 5.00361,8.13086 2.29436,0.41798 4.58764,0.83493 6.87995,1.2509 3.33681,-3.54329 6.67248,-7.08744 10.00722,-10.63266 2.29436,-8.547 4.58763,-17.09465 6.87995,-25.64348 -1.45841,-5.41968 -2.91777,-10.84015 -4.37815,-16.26172 -4.16876,-3.75178 -8.33834,-7.50441 -12.50902,-11.25811 -5.0027,-0.41598 -10.00621,-0.83294 -15.01081,-1.2509 -3.54329,0.83495 -7.08744,1.66887 -10.63266,2.5018 -3.5433,2.50285 -7.08745,5.00461 -10.63267,7.50541 -5.0027,4.37924 -10.00621,8.75731 -15.01081,13.13446 -3.33481,6.67261 -6.67048,13.34395 -10.00722,20.01443 -0.83295,5.83865 -1.66686,11.67608 -2.5018,17.51262 -0.41597,3.54529 -0.83293,7.08944 -1.2509,10.63266 0.62646,5.21319 1.2519,10.42518 1.87635,15.63627 3.75378,6.6726 7.50641,13.34395 11.25812,20.01442 3.3368,2.50285 6.67247,5.00461 10.00721,7.50541 6.25563,2.29436 12.51001,4.58764 18.76352,6.87996 5.83866,0.20948 11.67608,0.41796 17.51262,0.62545 4.58773,-0.83295 9.17428,-1.66687 13.75991,-2.50181 6.04715,-3.3348 12.09305,-6.67047 18.13807,-10.00721 2.29437,-2.29236 4.58764,-4.58564 6.87996,-6.87996 -1.04144,-4.37724 -2.08383,-8.75531 -3.12725,-13.13446 -3.12632,-3.96027 -6.25351,-7.92138 -9.38176,-11.88356 -3.54329,-1.04144 -7.08744,-2.08384 -10.63266,-3.12726 -4.37725,3.33681 -8.75531,6.67248 -13.13447,10.00721 -2.70934,2.29437 -5.41957,4.58764 -8.13086,6.87996 -1.87539,-0.20749 -3.7517,-0.41597 -5.62905,-0.62545 -2.08388,-3.3348 -4.16868,-6.67047 -6.25451,-10.00721 -0.62446,-3.12632 -1.2499,-6.25351 -1.87635,-9.38176 0.20948,-3.54329 0.41796,-7.08744 0.62545,-10.63266 1.46041,-4.37725 2.91977,-8.75531 4.37815,-13.13447 2.50285,-1.87539 5.00461,-3.7517 7.50541,-5.62906 z" />
    <path
       style="fill:#070707;fill-opacity:1;stroke:#999999;stroke-width:9.3;stroke-dasharray:none;stroke-opacity:1"
       d="m 815.48405,434.68887 c 3.23212,4.37785 10.11207,6.2542 14.90724,7.71367 4.79516,1.45946 7.50539,2.50186 8.9642,4.79551 1.45882,2.29366 1.6673,5.83781 1.66726,12.82207 -5e-5,6.98427 -0.20853,17.40824 -0.72977,27.31126 -0.52125,9.90302 -1.35517,19.2846 -1.87635,26.99858 -0.52119,7.71398 -0.72967,13.75989 -0.31254,19.07637 0.41712,5.31648 1.45952,9.90303 3.6491,12.92573 2.18958,3.02271 5.52525,4.48206 8.86099,5.52433 3.33574,1.04227 6.67141,1.6677 10.00696,1.56326 3.33556,-0.10445 6.67123,-0.93836 8.6514,-3.23123 1.98018,-2.29286 2.60562,-6.04549 3.33536,-13.23823 0.72973,-7.19273 1.56365,-17.82518 2.18911,-26.89428 0.62546,-9.0691 1.04242,-16.57436 1.04247,-24.8095 4e-5,-8.23514 -0.41691,-17.19975 -0.1043,-22.7249 0.31261,-5.52516 1.355,-7.60996 4.1701,-8.96536 2.8151,-1.35541 7.40165,-1.98085 12.40527,-2.81481 5.00363,-0.83397 10.42409,-1.87636 17.40837,-3.23152 6.98429,-1.35516 15.53195,-3.023 22.09897,-5.31636 6.56701,-2.29335 11.15356,-5.21206 14.48917,-7.81802 3.3356,-2.60596 5.42041,-4.89925 6.35861,-8.96424 0.9382,-4.06499 0.72971,-9.90241 -5.21172,-12.50899 -5.94144,-2.60658 -17.61628,-1.98114 -23.97501,-1.66839 -6.35873,0.31275 -7.40113,0.31275 -7.81862,-1.66741 -0.41749,-1.98017 -0.20901,-5.94128 -7.40139,-6.87996 -7.19239,-0.93868 -21.78595,1.14611 -35.75449,3.23096 -13.96854,2.08485 -27.31122,4.16964 -37.11005,5.94175 -9.79884,1.7721 -16.05323,3.23146 -19.38936,7.40175 -3.33613,4.1703 -3.75309,11.05012 -0.52098,15.42796 z"
       id="path6324"
       inkscape:path-effect="#path-effect6326"
       inkscape:original-d="m 811.83503,437.19005 c 6.88095,1.87735 13.76091,3.7537 20.63987,5.62905 2.71134,1.04344 5.42157,2.08584 8.13086,3.12726 0.20949,3.54529 0.41797,7.08944 0.62545,10.63266 -0.20749,10.42539 -0.41597,20.84936 -0.62545,31.27254 -0.83295,9.38294 -1.66687,18.76452 -2.5018,28.14528 -0.20749,6.04714 -0.41597,12.09305 -0.62545,18.13807 1.04343,4.58773 2.08583,9.17428 3.12725,13.75992 3.3368,1.46041 6.67247,2.91977 10.00721,4.37815 3.3368,0.62646 6.67247,1.2519 10.00721,1.87635 3.33681,-0.83295 6.67248,-1.66687 10.00721,-2.5018 0.62647,-3.75178 1.2519,-7.50441 1.87636,-11.25811 0.83495,-10.63188 1.66886,-21.26433 2.5018,-31.89799 0.41797,-7.50456 0.83493,-15.00982 1.2509,-22.51623 -0.41598,-8.96397 -0.83293,-17.92858 -1.2509,-26.89438 1.04344,-2.08387 2.08583,-4.16867 3.12725,-6.2545 4.58773,-0.62447 9.17428,-1.24991 13.75992,-1.87636 5.42168,-1.04143 10.84214,-2.08383 16.26172,-3.12725 8.54899,-1.6669 17.09665,-3.33474 25.64348,-5.00361 4.58773,-2.91782 9.17427,-5.83654 13.75991,-8.75631 2.08588,-2.29236 4.17071,-4.58563 6.25451,-6.87995 -0.2075,-5.83666 -0.416,-11.67408 -0.6255,-17.51262 -11.67427,0.62646 -23.34911,1.2519 -35.02519,1.87635 -1.04144,0.001 -2.08384,0.001 -3.12726,0 0.20949,-3.96027 0.41797,-7.92138 0.62546,-11.88356 -14.59315,2.08587 -29.18671,4.17067 -43.78156,6.2545 -13.34221,2.08588 -26.68489,4.17067 -40.02884,6.25451 -6.25363,1.46041 -12.50802,2.91977 -18.76352,4.37815 -0.41598,6.8811 -0.83294,13.76092 -1.2509,20.63988 z" />
    <path
       style="fill:#070707;fill-opacity:1;stroke:#999999;stroke-width:9.3;stroke-dasharray:none;stroke-opacity:1"
       d="m 930.87953,542.47466 c 1.2505,-3.96063 1.45898,-11.46604 2.08441,-20.53522 0.62543,-9.06918 1.66783,-19.70163 1.8764,-28.35367 0.20857,-8.65204 -0.41687,-15.32338 -2.60561,-21.16095 -2.18875,-5.83757 -5.94138,-10.84108 -9.6941,-13.135 -3.75272,-2.29392 -7.50535,-1.87696 -10.63315,0.20807 -3.12779,2.08504 -5.62954,5.83767 -7.81865,11.57129 -2.18911,5.73361 -4.06542,13.44736 -5.42053,21.05716 -1.35512,7.60981 -2.18903,15.11507 -2.50169,21.47395 -0.31265,6.35888 -0.10417,11.57086 0.31286,16.47031 0.41702,4.89945 1.04246,9.486 2.29375,12.92598 1.25129,3.43999 3.12761,5.73327 6.04657,7.81786 2.91897,2.0846 6.88007,3.96091 10.0072,4.79451 3.12713,0.83361 5.4204,0.62513 6.98349,-0.93815 1.56309,-1.56329 2.39701,-4.482 3.96115,-6.15028 1.56414,-1.66827 3.85741,-2.08523 5.1079,-6.04586 z"
       id="path6328"
       inkscape:path-effect="#path-effect6330"
       inkscape:original-d="m 931.92157,546.01847 c 0.20948,-7.50441 0.41797,-15.00982 0.62545,-22.51622 1.04344,-10.63188 2.08584,-21.26433 3.12725,-31.89799 -0.62446,-6.67061 -1.2499,-13.34195 -1.87635,-20.01442 -3.75178,-5.00271 -7.50441,-10.00622 -11.25811,-15.01082 -3.75178,0.41797 -7.50441,0.83493 -11.25811,1.2509 -2.50086,3.75378 -5.00261,7.50641 -7.50541,11.25811 -1.87539,7.71505 -3.75171,15.42879 -5.62906,23.14168 -0.83295,7.50656 -1.66687,15.01182 -2.5018,22.51623 0.20948,5.21319 0.41796,10.42517 0.62545,15.63626 0.62646,4.58773 1.2519,9.17428 1.87635,13.75992 1.87739,2.29436 3.7537,4.58764 5.62906,6.87996 3.96226,1.87739 7.92337,3.7537 11.88356,5.62905 2.29437,-0.20748 4.58764,-0.41596 6.87996,-0.62545 0.83495,-2.91783 1.66887,-5.83654 2.5018,-8.75631 2.29437,-0.41597 4.58764,-0.83293 6.87996,-1.2509 z" />
    <path
       style="fill:#070707;fill-opacity:1;stroke:#999999;stroke-width:9.3;stroke-dasharray:none;stroke-opacity:1"
       d="m 1020.7365,412.48528 c -4.3781,-1.35571 -10.6326,-1.14723 -15.845,-6.3e-4 -5.21244,1.14659 -9.38203,3.23138 -13.13502,6.25459 -3.75299,3.0232 -7.08867,6.98432 -10.94564,11.571 -3.85698,4.58667 -8.23506,9.79868 -11.36239,14.9068 -3.12734,5.10813 -5.00365,10.11163 -6.67151,15.94934 -1.66787,5.8377 -3.12722,12.50905 -4.48236,20.11883 -1.35513,7.60978 -2.60601,16.15743 -1.35477,25.1225 1.25124,8.96508 5.00387,18.34665 8.7569,24.7053 3.75302,6.35865 7.50565,9.69433 11.25845,11.8831 3.7528,2.18878 7.50549,3.23119 12.71761,4.16927 5.21211,0.93809 11.88343,1.772 18.45043,0.93788 6.567,-0.83413 13.0299,-3.33589 18.0333,-6.25459 5.0034,-2.9187 8.5475,-6.2544 12.3002,-11.57062 3.7526,-5.31622 7.7137,-12.61299 10.424,-18.97163 2.7103,-6.35864 4.1697,-11.77912 5.0037,-18.45052 0.834,-6.6714 1.0425,-14.59362 0.7298,-22.20328 -0.3126,-7.60966 -1.1465,-14.90643 -2.8142,-21.05671 -1.6677,-6.15027 -4.1694,-11.15376 -7.9219,-15.94905 -3.7526,-4.79529 -8.7561,-9.38184 -12.5089,-13.13452 -3.7528,-3.75268 -6.2545,-6.67135 -10.6327,-8.02706 z"
       id="path6332"
       inkscape:path-effect="#path-effect6334"
       inkscape:original-d="m 1022.6119,410.92112 c -6.2535,0.20948 -12.508,0.41797 -18.7635,0.62545 -4.16873,2.08588 -8.33833,4.17067 -12.50903,6.25451 -3.3348,3.96227 -6.6705,7.92337 -10.0072,11.88356 -4.3772,5.2132 -8.75531,10.42518 -13.13446,15.63627 -1.87539,5.00471 -3.75171,10.00821 -5.62906,15.01082 -1.45841,6.67261 -2.91777,13.34395 -4.37815,20.01442 -1.24993,8.549 -2.50081,17.09665 -3.75271,25.64348 3.75378,9.38295 7.50641,18.76452 11.25811,28.14528 3.75378,3.33681 7.50641,6.67248 11.25807,10.00721 3.7538,1.04344 7.5065,2.08584 11.2582,3.12726 6.6726,0.83495 13.34393,1.66887 20.01443,2.5018 6.4641,-2.50085 12.927,-5.00261 19.389,-7.50541 3.5452,-3.3348 7.0894,-6.67047 10.6326,-10.00721 3.9623,-7.29607 7.9234,-14.59285 11.8836,-21.89077 1.4604,-5.41969 2.9198,-10.84015 4.3781,-16.26172 0.2095,-7.92154 0.418,-15.84376 0.6255,-23.76713 -0.833,-7.29607 -1.6669,-14.59285 -2.5018,-21.89078 -2.5009,-5.0027 -5.0026,-10.00621 -7.5054,-15.01081 -5.0027,-4.58573 -10.0062,-9.17228 -15.0108,-13.75992 -2.5009,-2.91783 -5.0026,-5.83654 -7.5055,-8.75631 z" />
    <path
       style="fill:#f6f6f6;fill-opacity:1;stroke:none;stroke-width:9.3;stroke-dasharray:none;stroke-opacity:1"
       d="m 1007.3931,449.69939 c -2.711,4.16992 -5.6298,12.71775 -7.71458,19.91058 -2.08484,7.19283 -3.33571,13.03025 -4.16961,18.34671 -0.83389,5.31646 -1.25085,10.11148 -0.62505,14.17709 0.62581,4.06561 2.29366,7.40131 3.96128,8.33882 1.66766,0.93752 3.33546,-0.52187 5.73296,-3.3363 2.3975,-2.81443 5.5247,-6.98402 7.9223,-12.71711 2.3975,-5.7331 4.0654,-13.02987 4.8994,-18.65883 0.834,-5.62897 0.834,-9.59008 0.3129,-14.28094 -0.5211,-4.69085 -1.5635,-10.11131 -3.3352,-12.92638 -1.7717,-2.81506 -4.2735,-3.02355 -6.9844,1.14636 z"
       id="path6336"
       inkscape:path-effect="#path-effect6338"
       inkscape:original-d="m 1007.6011,445.32091 c -2.9177,8.54883 -5.8365,17.09666 -8.75633,25.64348 -1.2499,5.83866 -2.5008,11.67608 -3.7527,17.51262 -0.416,4.79622 -0.8329,9.59125 -1.2509,14.38537 1.6689,3.3368 3.3368,6.67247 5.0036,10.00721 1.66893,-1.45841 3.33683,-2.91777 5.00363,-4.37815 3.1283,-4.16876 6.2555,-8.33835 9.3818,-12.50902 1.6689,-7.29607 3.3367,-14.59285 5.0036,-21.89077 10e-4,-3.96027 10e-4,-7.92138 0,-11.88357 -1.0414,-5.41968 -2.0838,-10.84014 -3.1273,-16.26172 -2.5008,-0.20748 -5.0026,-0.41596 -7.5054,-0.62545 z" />
    <path
       style="fill:#030303;fill-opacity:1;stroke:#9c9c9c;stroke-width:9.3;stroke-dasharray:none;stroke-opacity:1"
       d="m 1065.2469,531.63408 c 0.3124,-5.83775 1.9803,-14.17709 4.1694,-24.28869 2.1891,-10.11159 4.8993,-21.9949 7.1927,-34.92096 2.2934,-12.92607 4.1697,-26.89419 6.5673,-36.90167 2.3975,-10.00748 5.3162,-16.05338 8.5482,-19.59793 3.2319,-3.54455 6.776,-4.58693 11.0502,-2.39719 4.2741,2.18975 9.2776,7.61022 13.4471,13.13515 4.1696,5.52493 7.5053,11.15387 10.2156,15.84479 2.7103,4.69092 4.7951,8.44355 6.2541,8.86024 1.459,0.41669 2.2929,-2.50201 3.8565,-9.27779 1.5637,-6.77578 3.8569,-17.40824 6.6715,-25.95631 2.8145,-8.54808 6.1502,-15.01096 10.112,-18.45117 3.9618,-3.44021 8.5483,-3.85717 12.1969,-3.43986 3.6487,0.41731 6.3589,1.66817 7.6091,2.91921 1.2503,1.25105 1.0418,2.50193 1.8761,5.10819 0.8343,2.60627 2.7106,6.56742 2.9188,16.2619 0.2081,9.69448 -1.2512,25.12195 -2.9191,37.631 -1.668,12.50904 -3.5443,22.0991 -4.8994,29.29185 -1.3552,7.19275 -2.1891,11.98777 -4.691,20.11863 -2.5019,8.13086 -6.6714,19.5972 -9.7987,27.83233 -3.1273,8.23513 -5.2121,13.23864 -8.5472,15.32331 -3.3352,2.08466 -7.9217,1.25076 -11.466,-0.83366 -3.5444,-2.08443 -6.0462,-5.42007 -7.2975,-9.38137 -1.2513,-3.96129 -1.2513,-8.54784 -2.502,-14.07262 -1.2507,-5.52478 -3.7525,-11.98764 -6.2542,-17.40825 -2.5018,-5.42061 -5.0035,-9.7987 -6.5675,-11.57133 -1.564,-1.77262 -2.1895,-0.93867 -2.7107,1.45929 -0.5212,2.39796 -0.9381,6.35906 -2.1891,10.63281 -1.251,4.27374 -3.3358,8.86029 -5.6291,13.65544 -2.2934,4.79515 -4.7951,9.79864 -8.1308,14.28088 -3.3356,4.48223 -7.5052,8.44335 -12.1956,9.79862 -4.6903,1.35526 -9.9023,0.10439 -13.03,-2.18852 -3.1277,-2.2929 -4.1701,-5.62856 -3.8576,-11.46632 z"
       id="path6448"
       inkscape:path-effect="#path-effect6450"
       inkscape:original-d="m 1063.8916,534.13491 c 1.6689,-8.33834 3.3368,-16.67768 5.0036,-25.01803 2.7114,-11.8828 5.4216,-23.76612 8.1309,-35.65069 1.8774,-13.96768 3.7537,-27.9358 5.6291,-41.90519 2.9198,-6.04515 5.8385,-12.09105 8.7563,-18.13808 3.5453,-1.04143 7.0894,-2.08383 10.6326,-3.12725 5.0047,5.42168 10.0082,10.84215 15.0108,16.26172 3.3368,5.63017 6.6725,11.25911 10.0073,16.88717 2.0858,3.75378 4.1706,7.50641 6.2545,11.25811 0.8349,-2.91783 1.6688,-5.83654 2.5018,-8.75631 2.2943,-10.63187 4.5876,-21.26432 6.8799,-31.89798 3.3368,-6.46212 6.6725,-12.92499 10.0072,-19.38898 4.5878,-0.41597 9.1743,-0.83293 13.7599,-1.2509 2.7114,1.25193 5.4216,2.5028 8.1309,3.75271 -0.2075,1.25192 -0.416,2.5028 -0.6254,3.7527 1.8773,3.96227 3.7537,7.92338 5.629,11.88356 -1.4584,15.4291 -2.9178,30.85657 -4.3781,46.28336 -1.8754,9.59143 -3.7517,19.18149 -5.6291,28.77073 -0.833,4.79622 -1.6669,9.59124 -2.5018,14.38537 -4.1688,11.46782 -8.3383,22.93419 -12.509,34.39979 -2.0839,5.0047 -4.1687,10.00821 -6.2545,15.01081 -4.5858,-0.83295 -9.1723,-1.66687 -13.7599,-2.5018 -2.5009,-3.3348 -5.0026,-6.67047 -7.5054,-10.00721 10e-4,-4.58573 10e-4,-9.17228 0,-13.75992 -2.5009,-6.46212 -5.0027,-12.92498 -7.5055,-19.38897 -2.5008,-4.37724 -5.0026,-8.75531 -7.5054,-13.13446 -0.6244,0.83495 -1.2499,1.66886 -1.8763,2.5018 -0.416,3.96227 -0.833,7.92337 -1.2509,11.88356 -2.0839,4.58773 -4.1687,9.17428 -6.2545,13.75992 -2.5009,5.0047 -5.0026,10.00821 -7.5054,15.01082 -4.1688,3.96226 -8.3384,7.92337 -12.509,11.88356 -5.2112,-1.24993 -10.4232,-2.5008 -15.6363,-3.75271 -1.0415,-3.3348 -2.0839,-6.67047 -3.1273,-10.00721 z" />
  </g>
</svg>
