<?xml version="1.0" encoding="UTF-8" standalone="no"?>
<!-- Created with Inkscape (http://www.inkscape.org/) -->

<svg
   version="1.1"
   id="svg9"
   width="1031"
   height="199.00101"
   viewBox="0 0 1145.5568 221.1121"
   sodipodi:docname="One-DirectioN1.svg"
   inkscape:version="1.2.1 (9c6d41e410, 2022-07-14)"
   xmlns:inkscape="http://www.inkscape.org/namespaces/inkscape"
   xmlns:sodipodi="http://sodipodi.sourceforge.net/DTD/sodipodi-0.dtd"
   xmlns="http://www.w3.org/2000/svg"
   xmlns:svg="http://www.w3.org/2000/svg">
  <defs
     id="defs13">
    <inkscape:path-effect
       effect="bspline"
       id="path-effect6450"
       is_visible="true"
       lpeversion="1"
       weight="33.333333"
       steps="2"
       helper_size="0"
       apply_no_weight="true"
       apply_with_weight="true"
       only_selected="false" />
    <inkscape:path-effect
       effect="bspline"
       id="path-effect6338"
       is_visible="true"
       lpeversion="1"
       weight="33.333333"
       steps="2"
       helper_size="0"
       apply_no_weight="true"
       apply_with_weight="true"
       only_selected="false" />
    <inkscape:path-effect
       effect="bspline"
       id="path-effect6334"
       is_visible="true"
       lpeversion="1"
       weight="33.333333"
       steps="2"
       helper_size="0"
       apply_no_weight="true"
       apply_with_weight="true"
       only_selected="false" />
    <inkscape:path-effect
       effect="bspline"
       id="path-effect6330"
       is_visible="true"
       lpeversion="1"
       weight="33.333333"
       steps="2"
       helper_size="0"
       apply_no_weight="true"
       apply_with_weight="true"
       only_selected="false" />
    <inkscape:path-effect
       effect="bspline"
       id="path-effect6326"
       is_visible="true"
       lpeversion="1"
       weight="33.333333"
       steps="2"
       helper_size="0"
       apply_no_weight="true"
       apply_with_weight="true"
       only_selected="false" />
    <inkscape:path-effect
       effect="bspline"
       id="path-effect6268"
       is_visible="true"
       lpeversion="1"
       weight="33.333333"
       steps="2"
       helper_size="0"
       apply_no_weight="true"
       apply_with_weight="true"
       only_selected="false" />
    <inkscape:path-effect
       effect="bspline"
       id="path-effect6102"
       is_visible="true"
       lpeversion="1"
       weight="33.333333"
       steps="2"
       helper_size="0"
       apply_no_weight="true"
       apply_with_weight="true"
       only_selected="false" />
    <inkscape:path-effect
       effect="bspline"
       id="path-effect2071"
       is_visible="true"
       lpeversion="1"
       weight="33.333333"
       steps="2"
       helper_size="0"
       apply_no_weight="true"
       apply_with_weight="true"
       only_selected="false" />
    <inkscape:path-effect
       effect="bspline"
       id="path-effect2013"
       is_visible="true"
       lpeversion="1"
       weight="33.333333"
       steps="2"
       helper_size="0"
       apply_no_weight="true"
       apply_with_weight="true"
       only_selected="false" />
    <inkscape:path-effect
       effect="bspline"
       id="path-effect1955"
       is_visible="true"
       lpeversion="1"
       weight="33.333333"
       steps="2"
       helper_size="0"
       apply_no_weight="true"
       apply_with_weight="true"
       only_selected="false" />
    <inkscape:path-effect
       effect="bspline"
       id="path-effect1951"
       is_visible="true"
       lpeversion="1"
       weight="33.333333"
       steps="2"
       helper_size="0"
       apply_no_weight="true"
       apply_with_weight="true"
       only_selected="false" />
    <inkscape:path-effect
       effect="bspline"
       id="path-effect1839"
       is_visible="true"
       lpeversion="1"
       weight="33.333333"
       steps="2"
       helper_size="0"
       apply_no_weight="true"
       apply_with_weight="true"
       only_selected="false" />
    <inkscape:path-effect
       effect="bspline"
       id="path-effect1727"
       is_visible="true"
       lpeversion="1"
       weight="33.333333"
       steps="2"
       helper_size="0"
       apply_no_weight="true"
       apply_with_weight="true"
       only_selected="false" />
    <inkscape:path-effect
       effect="bspline"
       id="path-effect1723"
       is_visible="true"
       lpeversion="1"
       weight="33.333333"
       steps="2"
       helper_size="0"
       apply_no_weight="true"
       apply_with_weight="true"
       only_selected="false" />
    <inkscape:path-effect
       effect="bspline"
       id="path-effect1719"
       is_visible="true"
       lpeversion="1"
       weight="33.333333"
       steps="2"
       helper_size="0"
       apply_no_weight="true"
       apply_with_weight="true"
       only_selected="false" />
    <inkscape:path-effect
       effect="bspline"
       id="path-effect1661"
       is_visible="true"
       lpeversion="1"
       weight="33.333333"
       steps="2"
       helper_size="0"
       apply_no_weight="true"
       apply_with_weight="true"
       only_selected="false" />
    <inkscape:path-effect
       effect="bspline"
       id="path-effect1549"
       is_visible="true"
       lpeversion="1"
       weight="33.333333"
       steps="2"
       helper_size="0"
       apply_no_weight="true"
       apply_with_weight="true"
       only_selected="false" />
    <inkscape:path-effect
       effect="bspline"
       id="path-effect1545"
       is_visible="true"
       lpeversion="1"
       weight="33.333333"
       steps="2"
       helper_size="0"
       apply_no_weight="true"
       apply_with_weight="true"
       only_selected="false" />
  </defs>
  <sodipodi:namedview
     id="namedview11"
     pagecolor="#ffffff"
     bordercolor="#000000"
     borderopacity="0.25"
     inkscape:showpageshadow="2"
     inkscape:pageopacity="0.0"
     inkscape:pagecheckerboard="0"
     inkscape:deskcolor="#d1d1d1"
     showgrid="false"
     inkscape:zoom="1.1305556"
     inkscape:cx="415.72481"
     inkscape:cy="170.71253"
     inkscape:window-width="1920"
     inkscape:window-height="1017"
     inkscape:window-x="-8"
     inkscape:window-y="-8"
     inkscape:window-maximized="1"
     inkscape:current-layer="g15" />
  <g
     inkscape:groupmode="layer"
     inkscape:label="Image"
     id="g15">
    <path
       style="fill:#df0000;fill-opacity:1;stroke:#050505;stroke-width:9.3;stroke-dasharray:none;stroke-opacity:1"
       d="m 37.869941,57.943976 c -2.397624,4.064793 -8.026673,8.442944 -12.613521,14.697823 -4.586847,6.25488 -8.130994,14.385572 -10.111513,22.51675 -1.980519,8.131181 -2.397477,16.261871 -1.667575,23.663221 0.729902,7.40136 2.606216,14.0727 5.629542,20.01449 3.023326,5.94179 7.192911,11.15377 12.196715,15.63603 5.003804,4.48226 10.841231,8.23489 18.242341,9.5896 7.401111,1.35471 16.365721,0.31231 25.226125,-2.39807 8.860405,-2.71038 17.616545,-7.08845 24.808995,-14.07249 7.19245,-6.98404 12.82139,-16.57409 16.15718,-25.95566 3.33579,-9.38158 4.37818,-18.55466 3.33596,-28.561823 C 118.03196,83.066688 114.90477,72.225756 110.31837,63.469311 105.73198,54.712866 99.686073,48.041522 93.535868,43.037677 87.385664,38.033832 81.131283,34.698162 74.9808,33.34266 68.830316,31.987158 62.784416,32.612596 57.780672,33.446496 c -5.003744,0.833901 -8.964854,1.8763 -11.988314,4.065635 -3.02346,2.189334 -5.108254,5.525008 -5.733482,9.069714 -0.625228,3.544707 0.208689,7.297337 -2.188935,11.362131 z"
       id="path1543"
       inkscape:path-effect="#path-effect1545"
       inkscape:original-d="m 41.101239,57.630717 c -5.62806,4.37916 -11.25711,8.75731 -16.88717,13.13447 -3.543285,8.13202 -7.087436,16.26271 -10.632657,24.39257 -0.415975,8.132023 -0.832934,16.262713 -1.250901,24.392573 1.877389,6.67261 3.753704,13.34395 5.629056,20.01443 4.170757,5.21319 8.340342,10.42517 12.509012,15.63626 5.83865,3.75378 11.67608,7.50641 17.51262,11.25812 8.96597,-1.04144 17.93058,-2.08384 26.89438,-3.12726 8.75748,-4.37724 17.51362,-8.75531 26.268931,-13.13446 5.63017,-9.58944 11.25911,-19.17949 16.88717,-28.77074 1.04344,-9.17246 2.08583,-18.34555 3.12725,-27.519823 -3.12631,-10.84036 -6.25351,-21.68129 -9.38176,-32.52343 -6.04514,-6.67061 -12.091048,-13.34195 -18.138071,-20.01443 -6.25363,-3.3348 -12.50801,-6.67047 -18.76352,-10.00721 -6.04515,0.62646 -12.09105,1.2519 -18.13807,1.87635 -3.96027,1.04344 -7.92138,2.08584 -11.88357,3.12726 -2.08387,3.3368 -4.16867,6.67247 -6.2545,10.00721 0.83495,3.75378 1.66887,7.50641 2.5018,11.25811 z" />
    <path
       style="fill:#050505;fill-opacity:1"
       d="m 73.878512,72.954889 c -2.814194,-2.398133 -6.983874,-2.606616 -11.779656,1.563245 -4.795783,4.169862 -10.216244,12.717512 -13.030707,20.74456 -2.814462,8.027046 -3.022941,15.532296 -1.771537,20.848706 1.251405,5.31641 3.961641,8.44361 6.984617,9.69389 3.022976,1.25029 6.358647,0.62485 10.111042,-1.45998 3.752395,-2.08484 7.921905,-5.62892 10.632118,-10.21524 2.710213,-4.58632 3.961088,-10.21526 4.4824,-15.322999 0.521312,-5.10774 0.312833,-9.69429 -0.520949,-14.280898 -0.833781,-4.586608 -2.293134,-9.17315 -5.107328,-11.571284 z"
       id="path1547"
       inkscape:path-effect="#path-effect1549"
       inkscape:original-d="m 75.232941,70.765187 c -4.16867,-0.20749 -8.33835,-0.41597 -12.50902,-0.62545 -5.41968,8.549 -10.84014,17.09665 -16.26172,25.64348 -0.20748,7.506553 -0.41596,15.011803 -0.62545,22.516213 2.71134,3.12832 5.42158,6.25551 8.13086,9.38176 3.33681,-0.62446 6.67248,-1.2499 10.00721,-1.87635 4.17076,-3.54329 8.34027,-7.08737 12.50902,-10.63266 1.25193,-5.62817 2.5028,-11.25711 3.7527,-16.887163 -0.20748,-4.58573 -0.41596,-9.17228 -0.62545,-13.75992 -1.45841,-4.58573 -2.91777,-9.17227 -4.37815,-13.75991 z"
       sodipodi:nodetypes="cccccccccc" />
    <path
       style="fill:#df0000;fill-opacity:1;stroke:#050505;stroke-width:9.3;stroke-dasharray:none;stroke-opacity:1"
       d="m 100.75771,158.80539 c 0.83334,-22.72466 3.96059,-67.131656 6.14961,-90.899016 2.18902,-23.767359 3.4399,-26.89455 5.52491,-29.709399 2.08501,-2.814849 5.00372,-5.3166 8.65277,-6.046108 3.64905,-0.729508 8.02712,0.312892 12.40511,4.170343 4.37799,3.857451 8.75606,10.528794 13.55112,19.910699 4.79505,9.381905 10.00704,21.473707 12.9255,27.102234 2.91845,5.628527 3.54389,4.794607 4.58633,-1.980876 1.04244,-6.775484 2.5018,-19.492735 3.85692,-28.666131 1.35512,-9.173396 2.606,-14.802346 4.89964,-18.451293 2.29363,-3.648947 5.6293,-5.316783 10.84182,-3.439852 5.21251,1.87693 12.30082,7.297397 16.05313,10.737558 3.75232,3.44016 4.16928,4.89952 4.06479,7.088405 -0.1045,2.188886 -0.72994,5.107596 -1.4596,11.883504 -0.72965,6.775907 -1.56357,17.408357 -3.12724,31.064163 -1.56367,13.655809 -3.85695,30.334159 -6.46306,43.781359 -2.60611,13.4472 -5.52482,23.66269 -8.65166,29.18709 -3.12683,5.52441 -6.4625,6.35833 -10.21504,5.21214 -3.75254,-1.14618 -7.92213,-4.27337 -12.82173,-10.21508 -4.89961,-5.94171 -10.52856,-14.69785 -14.07287,-20.5354 -3.5443,-5.83754 -5.00366,-8.75626 -6.35892,-9.90361 -1.35526,-1.14735 -2.60613,-0.52191 -3.33604,2.29324 -0.72992,2.81516 -0.9384,7.81867 -1.56389,14.80291 -0.62549,6.98425 -1.66789,15.94886 -5.21197,22.20288 -3.54408,6.25401 -9.58998,9.79816 -14.6976,11.88304 -5.10763,2.08487 -9.27722,2.71031 -12.09161,2.50228 -2.8144,-0.20803 -4.273752,-1.25042 -3.44042,-23.97508 z"
       id="path1659"
       inkscape:path-effect="#path-effect1661"
       inkscape:original-d="m 98.463855,180.48682 c 3.128265,-44.40601 6.255515,-88.813011 9.381765,-133.221011 1.25193,-3.12631 2.50281,-6.2535 3.75271,-9.38176 2.91983,-2.50085 5.83854,-5.0026 8.75631,-7.50541 4.37924,1.04344 8.75731,2.08584 13.13446,3.12726 4.37925,6.6726 8.75731,13.34395 13.13447,20.01442 5.21319,12.09329 10.42518,24.18509 15.63627,36.27614 0.62646,-0.83295 1.2519,-1.66687 1.87635,-2.5018 1.46041,-12.71675 2.91977,-25.434 4.37815,-38.1525 1.25193,-5.62816 2.50281,-11.25711 3.75271,-16.88716 3.3368,-1.66691 6.67247,-3.33474 10.00721,-5.00361 7.08958,5.42168 14.17788,10.84215 21.26532,16.26172 0.41798,1.46041 0.83494,2.91977 1.2509,4.37815 -0.62446,2.91983 -1.2499,5.83854 -1.87635,8.75631 -0.83295,10.63388 -1.66687,21.26633 -2.5018,31.89799 -2.29237,16.680021 -4.58564,33.358371 -6.87996,50.036061 -2.91783,10.2169 -5.83654,20.43239 -8.75631,30.64708 -3.3348,0.83495 -6.67047,1.66887 -10.00721,2.50181 -4.16875,-3.12632 -8.33834,-6.25351 -12.50901,-9.38177 -5.62817,-8.75548 -11.25712,-17.51162 -16.88717,-26.26893 -1.45842,-2.91782 -2.91777,-5.83654 -4.37816,-8.75631 -1.24993,0.62647 -2.5008,1.25191 -3.7527,1.87636 -0.20749,5.0047 -0.41597,10.00821 -0.62545,15.01081 -1.04144,8.96598 -2.08384,17.93059 -3.12726,26.89438 -6.04514,3.5453 -12.09104,7.08945 -18.13807,10.63267 -4.16875,0.62646 -8.33834,1.2519 -12.50901,1.87635 -1.45842,-1.04144 -2.917772,-2.08384 -4.378165,-3.12725 z" />
    <path
       style="fill:#df0000;fill-opacity:1;stroke:#050505;stroke-width:9.3;stroke-dasharray:none;stroke-opacity:1"
       d="m 281.69156,57.86928 c 1.25077,-4.377504 0.41683,-11.465945 -2.81425,-15.219164 -3.23108,-3.753219 -8.86003,-4.170178 -15.63602,-3.336353 -6.77598,0.833825 -14.69819,2.918615 -19.38919,4.273752 -4.691,1.355137 -6.15036,1.980579 -8.54762,1.147118 -2.39726,-0.833461 -5.73293,-3.126732 -9.38198,-2.501668 -3.64904,0.625063 -7.61015,4.169214 -10.8418,8.339148 -3.23165,4.169934 -5.7334,8.964962 -7.92249,15.01122 -2.18909,6.046257 -4.0654,13.343037 -5.52476,21.578316 -1.45935,8.235279 -2.50175,17.408371 -3.43993,26.060531 -0.93818,8.65216 -1.7721,16.78285 -1.77193,22.93329 1.7e-4,6.15044 0.83409,10.32003 2.50213,15.21948 1.66805,4.89945 4.1698,10.52839 8.02712,14.80206 3.85733,4.27367 9.06932,7.19239 14.38568,9.17277 5.31637,1.98038 10.73683,3.02277 15.53187,3.33534 4.79503,0.31257 8.96462,-0.10439 13.86377,-1.87658 4.89914,-1.7722 10.52808,-4.89938 15.74012,-8.33936 5.21203,-3.43998 10.00706,-7.19261 12.09186,-13.44662 2.0848,-6.254 1.45937,-15.01014 0.52127,-22.20283 -0.9381,-7.19269 -2.18898,-12.82164 -4.79504,-14.49016 -2.60606,-1.66851 -6.56716,0.62476 -11.36238,3.64782 -4.79522,3.02307 -10.42417,6.7757 -14.28119,9.48603 -3.85702,2.71033 -5.94181,4.37816 -7.92206,3.96178 -1.98026,-0.41638 -3.85657,-2.91813 -4.79517,-7.50489 -0.9386,-4.58677 -0.9386,-11.25812 1.66786,-15.2199 2.60646,-3.96179 7.81844,-5.21266 12.92613,-7.29753 5.1077,-2.08487 10.1112,-5.00358 12.61285,-7.921788 2.50165,-2.918209 2.50165,-5.836919 1.66795,-9.276835 -0.83369,-3.439916 -2.50153,-7.401027 -6.67111,-8.86107 -4.16958,-1.460043 -10.84092,-0.417644 -14.59366,-0.521257 -3.75274,-0.103613 -4.58666,-1.354494 -4.58711,-2.605869 -4.5e-4,-1.251376 0.83346,-2.502249 5.10794,-3.753344 4.27448,-1.251095 11.98822,-2.501974 17.51297,-3.648675 5.52475,-1.146702 8.86042,-2.189097 12.19607,-3.544259 3.33566,-1.355161 6.67133,-3.022999 7.9221,-7.400503 z"
       id="path1717"
       inkscape:path-effect="#path-effect1719"
       inkscape:original-d="m 283.77613,60.579113 c -0.83293,-7.08744 -1.66687,-14.17588 -2.5018,-21.26532 -5.62817,-0.41598 -11.25712,-0.83294 -16.88717,-1.2509 -7.92154,2.08588 -15.84375,4.17067 -23.76713,6.2545 -1.45841,0.62647 -2.91777,1.25191 -4.37815,1.87636 -3.33481,-2.29237 -6.67048,-4.58564 -10.00722,-6.87996 -3.96026,3.54529 -7.92137,7.08944 -11.88356,10.63266 -2.50085,4.79622 -5.0026,9.59125 -7.50541,14.38537 -1.87539,7.29807 -3.7517,14.59485 -5.62905,21.89077 -1.04144,9.17446 -2.08384,18.347557 -3.12726,27.519827 -0.83295,8.13203 -1.66687,16.26272 -2.5018,24.39258 0.83495,4.17076 1.66887,8.34035 2.5018,12.50902 2.50286,5.63017 5.00461,11.25911 7.50541,16.88717 5.21319,2.91982 10.42518,5.83854 15.63627,8.75631 5.42168,1.04343 10.84214,2.08583 16.26172,3.12725 4.17075,-0.41598 8.34034,-0.83293 12.50901,-1.2509 5.63017,-3.12632 11.25911,-6.25351 16.88717,-9.38176 4.79622,-3.75178 9.59125,-7.50441 14.38537,-11.25812 -0.62447,-8.75548 -1.2499,-17.51162 -1.87635,-26.26893 -1.24993,-5.62816 -2.50081,-11.25711 -3.75271,-16.88717 -3.96027,2.29437 -7.92137,4.58764 -11.88356,6.87996 -5.62817,3.75378 -11.25712,7.50641 -16.88717,11.25812 -2.08388,1.6689 -4.16867,3.33673 -6.25451,5.0036 -1.87539,-2.50085 -3.7517,-5.0026 -5.62906,-7.50541 0.001,-6.6706 0.001,-13.34195 0,-20.01442 5.2132,-1.24993 10.42518,-2.5008 15.63627,-3.7527 5.00471,-2.91783 10.00821,-5.83654 15.01082,-8.756307 10e-4,-2.91783 10e-4,-5.83654 0,-8.75631 -1.6669,-3.96027 -3.33474,-7.92138 -5.00361,-11.88357 -6.6706,1.04344 -13.34194,2.08584 -20.01442,3.12726 -0.83295,-1.24993 -1.66687,-2.50081 -2.5018,-3.75271 0.83495,-1.24993 1.66887,-2.5008 2.5018,-3.7527 7.71505,-1.24993 15.42879,-2.50081 23.14168,-3.75271 3.3368,-1.04144 6.67247,-2.08383 10.00721,-3.12725 3.3368,-1.6669 6.67247,-3.33474 10.00721,-5.00361 z" />
    <path
       style="fill:#df0000;fill-opacity:1;stroke:#050505;stroke-width:9.3;stroke-dasharray:none;stroke-opacity:1"
       d="m 375.1662,34.131797 c -3.85747,3.544416 -7.81866,10.215896 -11.25867,18.868259 -3.44001,8.652364 -6.35873,19.284813 -8.96479,29.396385 -2.60606,10.111572 -4.89933,19.701619 -6.98418,29.291989 -2.08484,9.59038 -3.96115,19.18042 -4.89925,25.74781 -0.9381,6.56738 -0.9381,10.11153 7e-4,12.30038 0.9388,2.18886 2.81511,3.02277 6.56774,3.33521 3.75264,0.31244 9.38159,0.10396 11.77856,0.83388 2.39697,0.72993 1.56305,2.39777 -0.62567,3.85687 -2.18872,1.45909 -5.73287,2.70997 -10.42407,5.94159 -4.6912,3.23162 -10.52862,8.44361 -12.40444,11.15398 -1.87582,2.71037 0.20898,2.91885 5.42117,3.64858 5.21219,0.72973 13.55136,1.98061 21.36949,2.50172 7.81813,0.5211 15.11491,0.31263 21.78613,-1.4596 6.67122,-1.77222 12.71712,-5.10789 19.28426,-10.31995 6.56713,-5.21207 13.65543,-12.30037 18.76322,-18.55477 5.10778,-6.2544 8.23498,-11.67487 10.5283,-16.67837 2.29333,-5.0035 3.75269,-9.59005 5.00365,-17.40816 1.25097,-7.8181 2.29337,-18.867517 1.98082,-27.623751 -0.31255,-8.756234 -1.98038,-15.219096 -5.10743,-21.682171 -3.12704,-6.463075 -7.71359,-12.925936 -13.7595,-18.346776 -6.04592,-5.420841 -13.55118,-9.79891 -19.90997,-12.822092 -6.35879,-3.023182 -11.57077,-4.691014 -16.05337,-5.316701 -4.48259,-0.625687 -8.23522,-0.208729 -12.0927,3.335688 z"
       id="path1721"
       inkscape:path-effect="#path-effect1723"
       inkscape:original-d="m 375.27009,31.004445 c -3.96018,6.67247 -7.92137,13.34395 -11.88356,20.01442 -2.91783,10.63388 -5.83654,21.26633 -8.75631,31.89799 -2.29236,9.59144 -4.58564,19.181485 -6.87996,28.770735 -1.87539,9.59144 -3.7517,19.18149 -5.62905,28.77074 10e-4,3.54529 10e-4,7.08944 0,10.63266 1.87739,0.83495 3.7537,1.66887 5.62905,2.5018 5.63017,-0.20749 11.25912,-0.41597 16.88717,-0.62545 -0.83295,1.6689 -1.66687,3.33674 -2.5018,5.00361 -3.54329,1.25192 -7.08744,2.5028 -10.63266,3.7527 -5.83666,5.21319 -11.67408,10.42518 -17.51262,15.63627 2.08587,0.20949 4.17067,0.41797 6.2545,0.62545 8.34051,1.25193 16.67969,2.5028 25.01803,3.7527 7.29807,-0.20748 14.59485,-0.41596 21.89078,-0.62545 6.04714,-3.3348 12.09304,-6.67047 18.13807,-10.00721 7.08958,-7.08758 14.17788,-14.17588 21.26532,-21.26532 3.12832,-5.41968 6.25551,-10.84015 9.38176,-16.26172 1.46042,-4.58573 2.91977,-9.17228 4.37816,-13.75992 1.04344,-11.04885 2.08583,-22.098265 3.12725,-33.148895 -1.6669,-6.46212 -3.33474,-12.92498 -5.0036,-19.38897 -4.58573,-6.46212 -9.17228,-12.92498 -13.75992,-19.38897 -7.50456,-4.37724 -15.00982,-8.75531 -22.51623,-13.13447 -5.21119,-1.6669 -10.42317,-3.33473 -15.63626,-5.0036 -3.75178,0.41797 -7.50441,0.83493 -11.25812,1.2509 z" />
    <path
       style="fill:#050505;fill-opacity:1;stroke:none;stroke-width:9.3;stroke-dasharray:none;stroke-opacity:1"
       d="m 396.17856,63.379614 c -2.71098,4.795135 -6.04665,15.427575 -9.27821,26.164715 -3.23156,10.737141 -6.35868,21.577851 -8.13077,29.813241 -1.77208,8.2354 -2.18904,13.86435 -2.08446,16.57407 0.10458,2.70972 0.73002,2.50124 3.85749,2.18858 3.12747,-0.31266 8.7563,-0.72961 13.02984,-2.39748 4.27354,-1.66787 7.19219,-4.58652 9.79819,-8.44333 2.60599,-3.85681 4.89922,-8.65174 6.77563,-14.385 1.87641,-5.73325 3.33573,-12.40446 2.71055,-19.80555 -0.62518,-7.401087 -3.33542,-15.531788 -5.31596,-21.056625 -1.98055,-5.524837 -3.23142,-8.443545 -4.89897,-10.424453 -1.66755,-1.980908 -3.75234,-3.023302 -6.46333,1.771832 z"
       id="path1725"
       inkscape:path-effect="#path-effect1727"
       inkscape:original-d="m 396.80351,57.541463 c -3.33474,10.63366 -6.67041,21.2661 -10.00721,31.89798 -3.12632,10.842367 -6.25345,21.683077 -9.38176,32.523437 -0.41598,5.63017 -0.83293,11.25912 -1.2509,16.88717 0.62646,-0.20749 1.2519,-0.41597 1.87635,-0.62545 5.63017,-0.41598 11.259,-0.83293 16.88717,-1.2509 2.91983,-2.91783 5.83848,-5.83648 8.75631,-8.75631 2.29436,-4.79422 4.58759,-9.58915 6.87996,-14.38537 1.46041,-6.67061 2.91973,-13.34182 4.37815,-20.014427 -2.70934,-8.13002 -5.41958,-16.26072 -8.13086,-24.39257 -1.24993,-2.91783 -2.5008,-5.83654 -3.7527,-8.75631 -2.08388,-1.04144 -4.16867,-2.08384 -6.25451,-3.12725 z"
       sodipodi:nodetypes="cccccccccccc" />
    <path
       style="fill:#df0000;fill-opacity:1;stroke:#050505;stroke-width:9.3;stroke-dasharray:none;stroke-opacity:1"
       d="m 477.72545,48.368496 c -3.12773,0.208036 -6.46347,2.501352 -8.75699,6.150293 -2.29353,3.648941 -3.54441,8.652449 -5.21229,16.053738 -1.66788,7.401289 -3.75267,17.199818 -5.83752,28.458088 -2.08484,11.258265 -4.16964,23.975505 -5.21199,34.504105 -1.04235,10.5286 -1.04235,18.86777 -0.10363,23.87136 0.93873,5.0036 2.81504,6.67143 5.52542,7.92201 2.71038,1.25058 6.25453,2.0845 9.38183,3.02278 3.12729,0.93828 5.83753,1.98068 8.75591,1.6676 2.91838,-0.31307 6.04557,-1.98091 8.02595,-7.71375 1.98038,-5.73284 2.8143,-15.53137 3.96095,-24.91327 1.14664,-9.3819 2.606,-18.34651 3.96116,-26.79017 1.35515,-8.44366 2.60603,-16.365875 3.23154,-22.828826 0.62552,-6.462951 0.62552,-11.466461 -0.93785,-17.199724 -1.56336,-5.733262 -4.69055,-12.196122 -7.71331,-16.36604 -3.02275,-4.169919 -5.94146,-6.04623 -9.06918,-5.838194 z"
       id="path1837"
       inkscape:path-effect="#path-effect1839"
       inkscape:original-d="m 477.93324,46.283363 c -3.33473,2.29432 -6.67047,4.58763 -10.00721,6.87995 -1.24993,5.00471 -2.5008,10.00822 -3.7527,15.01082 -2.08388,9.79993 -4.16867,19.59846 -6.25451,29.39618 -2.08388,12.718757 -4.16867,25.435997 -6.25451,38.152497 10e-4,8.34051 10e-4,16.67968 0,25.01803 1.87739,1.6689 3.75371,3.33673 5.62906,5.0036 3.54529,0.83495 7.08944,1.66887 10.63266,2.50181 2.71134,1.04343 5.42157,2.08583 8.13086,3.12725 3.12832,-1.6669 6.25551,-3.33474 9.38176,-5.00361 0.83495,-9.79792 1.66887,-19.59645 2.5018,-29.39618 1.46042,-8.96397 2.91977,-17.92859 4.37816,-26.89438 1.25193,-7.92153 2.5028,-15.843747 3.7527,-23.767127 0.001,-5.0027 0.001,-10.00621 0,-15.01082 -3.12631,-6.46212 -6.2535,-12.92498 -9.38176,-19.38897 -2.91783,-1.87539 -5.83654,-3.7517 -8.75631,-5.62905 z" />
    <path
       style="fill:#df0000;fill-opacity:1;stroke:#050505;stroke-width:9.3;stroke-dasharray:none;stroke-opacity:1"
       d="m 536.54713,35.979 c -2.71065,-0.834521 -5.42093,1.875764 -7.92286,7.088255 -2.50192,5.212491 -4.79519,12.926229 -6.87998,17.82532 -2.08478,4.89909 -3.96109,6.983881 -4.37781,9.486283 -0.41672,2.502403 0.62568,5.421124 0.10416,12.405224 -0.52152,6.984101 -2.60631,18.033498 -5.00392,28.561978 -2.39761,10.52847 -5.10784,20.53548 -7.08843,28.87494 -1.98058,8.33946 -3.23146,15.0108 -4.37813,21.05688 -1.14667,6.04607 -2.18907,11.46654 -2.18882,16.05342 2.5e-4,4.58688 1.04265,8.33951 2.81522,10.73673 1.77258,2.39723 4.27433,3.43963 6.2548,4.79507 1.98047,1.35544 3.43983,3.02328 5.10722,2.81427 1.6674,-0.20901 3.54372,-2.29381 5.52432,-4.58713 1.9806,-2.29332 4.06539,-4.79507 6.56768,-6.25457 2.50229,-1.4595 5.42101,-1.87646 7.29691,-6.87965 1.8759,-5.00318 2.70982,-14.59323 3.44015,-19.28437 0.73034,-4.69113 1.35578,-4.48265 2.81496,-2.60588 1.45919,1.87676 3.75246,5.42091 7.40098,10.9458 3.64852,5.52488 8.65203,13.03014 13.76008,19.0761 5.10804,6.04596 10.32002,10.63251 15.63648,14.0723 5.31646,3.43979 10.73693,5.73306 16.88709,6.46244 6.15017,0.72937 13.02999,-0.10454 17.61619,-1.77236 4.58621,-1.66781 6.87948,-4.16957 8.02616,-7.08789 1.14668,-2.91833 1.14668,-6.254 -1.77156,-9.69416 -2.91824,-3.44015 -8.75567,-6.98431 -14.28063,-11.4666 -5.52496,-4.4823 -10.73694,-9.90277 -14.69831,-15.01058 -3.96137,-5.10781 -6.6716,-9.90284 -8.96503,-14.59376 -2.29343,-4.69091 -4.16974,-9.27745 -5.10817,-13.55151 -0.93842,-4.27406 -0.93842,-8.23517 -0.20855,-10.63333 0.72986,-2.39816 2.18922,-3.23208 5.31653,-5.00422 3.1273,-1.77213 7.92233,-4.48237 12.1961,-7.81804 4.27377,-3.33567 8.0264,-7.29678 10.84086,-11.466263 2.81445,-4.169486 4.69077,-8.547557 5.8375,-13.655241 1.14674,-5.107684 1.5637,-10.945114 0.52163,-16.052872 -1.04208,-5.107759 -3.54383,-9.485827 -6.8794,-13.342959 -3.33557,-3.857132 -7.50516,-7.192804 -11.77905,-9.799046 -4.2739,-2.606242 -8.65197,-4.482559 -13.34305,-5.212545 -4.69108,-0.729986 -9.69459,-0.313027 -15.01111,0.72935 -5.31651,1.042377 -10.94546,2.710215 -13.65557,3.544245 -2.7101,0.83403 -2.50162,0.83403 -3.75269,-1.354505 -1.25106,-2.188535 -3.9613,-6.566604 -6.67195,-7.401124 z"
       id="path1949"
       inkscape:path-effect="#path-effect1951"
       inkscape:original-d="m 536.54677,32.434189 c -2.70929,2.71129 -5.41957,5.42158 -8.13086,8.13086 -2.29237,7.71505 -4.58564,15.42879 -6.87996,23.14168 -1.87539,2.08588 -3.7517,4.17067 -5.62905,6.25451 1.04343,2.91982 2.08583,5.83854 3.12725,8.75631 -2.08388,11.05085 -4.16867,22.100251 -6.25451,33.148881 -2.70934,10.00842 -5.41957,20.01543 -8.13086,30.02164 -1.24992,6.67261 -2.5008,13.34395 -3.7527,20.01442 -1.04144,5.42168 -2.08384,10.84215 -3.12726,16.26172 1.04344,3.75378 2.08584,7.50641 3.12726,11.25811 2.50285,1.04344 5.0046,2.08584 7.50541,3.12726 1.46041,1.6689 2.91977,3.33673 4.37815,5.0036 1.87739,-2.08388 3.75371,-4.16867 5.62906,-6.25451 2.08588,-2.50085 4.17067,-5.0026 6.25451,-7.5054 2.91982,-0.41598 5.83854,-0.83294 8.75631,-1.25091 0.83495,-9.58943 1.66886,-19.17948 2.5018,-28.77073 0.62646,0.20949 1.2519,0.41797 1.87635,0.62545 2.29437,3.54529 4.58764,7.08944 6.87996,10.63266 5.0047,7.50656 10.00821,15.01182 15.01082,22.51623 5.21319,4.58773 10.42517,9.17428 15.63626,13.75992 5.42168,2.29436 10.84215,4.58763 16.26172,6.87995 6.8811,-0.83295 13.76092,-1.66686 20.63988,-2.5018 2.29436,-2.50085 4.58763,-5.0026 6.87995,-7.50541 10e-4,-3.3348 10e-4,-6.67047 0,-10.00721 -5.83665,-3.54329 -11.67408,-7.08744 -17.51262,-10.63266 -5.21119,-5.41968 -10.42317,-10.84015 -15.63626,-16.26172 -2.70934,-4.79422 -5.41958,-9.58924 -8.13086,-14.38537 -1.87539,-4.58573 -3.75171,-9.17227 -5.62906,-13.75991 10e-4,-3.96027 10e-4,-7.92138 0,-11.88357 1.46041,-0.83295 2.91977,-1.66686 4.37816,-2.5018 4.79621,-2.70934 9.59124,-5.41957 14.38536,-8.13086 3.75378,-3.96027 7.50641,-7.92137 11.25811,-11.883564 1.87739,-4.377237 3.75371,-8.755307 5.62906,-13.134467 0.41798,-5.83665 0.83494,-11.67408 1.2509,-17.51262 -2.50085,-4.37724 -5.0026,-8.75531 -7.50541,-13.13446 -4.16875,-3.33481 -8.33834,-6.67048 -12.50901,-10.00721 -4.37724,-1.87539 -8.75531,-3.75171 -13.13447,-5.62906 -5.0027,0.41798 -10.00621,0.83493 -15.01081,1.2509 -5.62817,1.6689 -11.25712,3.33674 -16.88717,5.00361 0.20949,0.001 0.41797,0.001 0.62545,0 -2.70934,-4.37724 -5.41957,-8.75531 -8.13086,-13.13447 z" />
    <path
       style="fill:#050505;fill-opacity:1;stroke:none;stroke-width:9.3;stroke-dasharray:none;stroke-opacity:1"
       d="m 569.84495,80.817259 c -2.50119,-2.397773 -9.58962,-2.606256 -14.59368,-1.668143 -5.00405,0.938113 -7.92277,3.02291 -9.79927,7.714369 -1.87651,4.691458 -2.71041,11.988069 -2.29341,14.698015 0.41701,2.70994 2.08483,0.83364 4.69107,-1.25133 2.60623,-2.084978 6.15038,-4.378252 9.69495,-5.733371 3.54457,-1.355119 7.08864,-1.772068 9.90269,-4.273643 2.81404,-2.501576 4.89884,-7.088124 2.39765,-9.485897 z"
       id="path2011"
       inkscape:path-effect="#path-effect2013"
       inkscape:original-d="m 574.43118,78.627939 c -7.08745,-0.20748 -14.17588,-0.41597 -21.26533,-0.62545 -2.91782,2.08588 -5.83654,4.17067 -8.75631,6.25451 -0.83295,7.29807 -1.66685,14.59468 -2.5018,21.890781 1.66891,-1.8754 3.33674,-3.7517 5.00361,-5.62906 3.54529,-2.292371 7.08944,-4.585641 10.63266,-6.879961 3.5453,-0.41598 7.08937,-0.83293 10.63266,-1.2509 2.08588,-4.58573 4.17067,-9.17228 6.25451,-13.75992 z"
       sodipodi:nodetypes="cccccccc" />
    <path
       style="fill:#df0000;fill-opacity:1;stroke:#050505;stroke-width:9.3;stroke-dasharray:none;stroke-opacity:1"
       d="m 685.65816,61.205419 c -5.73329,-0.62595 -15.94899,-0.62595 -21.89082,-1.563619 -5.94183,-0.93767 -7.60966,-2.813979 -9.69497,-2.606023 -2.08531,0.207957 -4.58706,2.501232 -7.40138,4.273272 -2.81432,1.77204 -5.94152,3.022921 -8.86066,5.733474 -2.91913,2.710553 -5.62936,6.880141 -8.96516,13.030572 -3.3358,6.150431 -7.2969,14.281127 -11.04964,22.307845 -3.75274,8.02672 -7.29689,15.94894 -9.48594,22.93339 -2.18904,6.98446 -3.02296,13.03036 -2.60573,18.76388 0.41722,5.73353 2.08506,11.154 4.06592,15.32365 1.98087,4.16965 4.27415,7.08837 6.77612,9.4858 2.50197,2.39742 5.2122,4.27373 8.33944,5.31578 3.12725,1.04206 6.6714,1.25054 11.25817,2.60594 4.58677,1.35541 10.21571,3.85716 15.63604,4.27375 5.42033,0.41658 10.63232,-1.25125 14.80173,-3.54452 4.16941,-2.29326 7.2966,-5.21197 8.86021,-10.31938 1.56361,-5.10741 1.56361,-12.40418 0.62602,-16.46985 -0.93759,-4.06567 -2.81391,-4.89959 -7.71343,-5.52529 -4.89952,-0.62569 -12.82174,-1.04265 -16.78346,-1.45915 -3.96171,-0.4165 -3.96171,-0.83346 -3.85749,-3.43957 0.10423,-2.60612 0.31271,-7.40115 0.83402,-10.11197 0.52132,-2.71083 1.35524,-3.33627 5.62929,-6.04663 4.27404,-2.71036 11.98778,-7.50539 15.94881,-11.88303 3.96103,-4.37764 4.16951,-8.33875 2.29362,-10.21559 -1.8759,-1.87685 -5.837,-1.66836 -8.23461,-2.08477 -2.3976,-0.416405 -3.23152,-1.458807 -2.39788,-2.81459 0.83363,-1.355783 3.33538,-3.023614 7.71393,-4.170248 4.37855,-1.146635 10.63293,-1.772072 14.38513,-3.022831 3.75219,-1.250759 5.00307,-3.12708 5.62859,-6.253991 0.62553,-3.126911 0.62553,-7.504981 1.25089,-10.945286 0.62537,-3.440306 1.87625,-5.942052 1.87683,-7.818119 5.9e-4,-1.876066 -1.25029,-3.126946 -6.98359,-3.752896 z"
       id="path2069"
       inkscape:path-effect="#path-effect2071"
       inkscape:original-d="m 690.13956,60.579469 c -10.21469,10e-4 -20.43039,10e-4 -30.64708,0 -1.66691,-1.87539 -3.33474,-3.7517 -5.00361,-5.62906 -2.50085,2.29437 -5.00261,4.58764 -7.50541,6.87996 -3.12631,1.25193 -6.25351,2.50281 -9.38176,3.75271 -2.70934,4.17075 -5.41957,8.34034 -8.13086,12.50901 -3.96027,8.13202 -7.92137,16.26272 -11.88356,24.392581 -3.54329,7.92353 -7.08744,15.84575 -10.63266,23.76713 -0.83296,6.04714 -1.66687,12.09304 -2.50181,18.13807 1.6689,5.42168 3.33674,10.84214 5.00361,16.26172 2.29436,2.91982 4.58764,5.83854 6.87996,8.75631 2.71134,1.87739 5.42157,3.7537 8.13086,5.62905 3.54529,0.20949 7.08944,0.41797 10.63266,0.62545 5.63017,2.50286 11.25911,5.00461 16.88717,7.50541 5.21319,-1.6669 10.42518,-3.33474 15.63627,-5.0036 3.12831,-2.91783 6.2555,-5.83654 9.38176,-8.75631 10e-4,-7.29608 10e-4,-14.59285 0,-21.89078 -1.87539,-0.83295 -3.75171,-1.66687 -5.62906,-2.5018 -7.92153,-0.41598 -15.84375,-0.83294 -23.76713,-1.2509 10e-4,-0.41598 10e-4,-0.83294 0,-1.25091 0.20949,-4.79421 0.41797,-9.58924 0.62545,-14.38536 0.83495,-0.62446 1.66887,-1.2499 2.50181,-1.87635 7.71504,-4.79422 15.42878,-9.58925 23.14167,-14.38537 0.20949,-3.96027 0.41797,-7.92138 0.62545,-11.883564 -3.96026,0.209484 -7.92137,0.417964 -11.88356,0.625454 -0.83295,-1.041444 -1.66687,-2.083844 -2.5018,-3.127261 2.50285,-1.6669 5.0046,-3.33473 7.50541,-5.0036 6.25563,-0.62447 12.51001,-1.2499 18.76352,-1.87635 1.25192,-1.87539 2.5028,-3.75171 3.7527,-5.62906 0.001,-4.37724 0.001,-8.75531 0,-13.13447 1.25193,-2.50085 2.5028,-5.0026 3.75271,-7.5054 -1.24993,-1.24993 -2.50081,-2.50081 -3.75271,-3.75271 z" />
    <path
       style="fill:#df0000;fill-opacity:1;stroke:#050505;stroke-width:9.3;stroke-dasharray:none;stroke-opacity:1"
       d="m 742.4244,107.32487 c 1.35509,1.35572 1.56357,5.94236 2.5021,9.59092 0.93853,3.64855 2.60637,6.35878 4.5872,7.92193 1.98082,1.56315 4.2741,1.98011 7.08808,0.41636 2.81397,-1.56375 6.14964,-5.1079 8.96412,-11.15368 2.81447,-6.04579 5.10774,-14.593439 5.52494,-21.577442 0.41721,-6.984003 -1.04215,-12.404474 -3.85635,-16.991269 -2.81421,-4.586794 -6.98379,-8.339418 -11.57047,-10.424686 -4.58667,-2.085267 -9.59018,-2.502226 -13.86431,-2.293864 -4.27412,0.208361 -7.81827,1.042278 -11.36279,2.710188 -3.54452,1.66791 -7.08867,4.169665 -11.3627,7.609723 -4.27402,3.440058 -9.27753,7.818129 -13.44737,13.343241 -4.16984,5.525111 -7.50551,12.196451 -9.59031,18.451239 -2.08481,6.25478 -2.91873,12.09221 -3.54417,16.78314 -0.62545,4.69093 -1.04241,8.23508 -0.93804,12.6134 0.10436,4.37832 0.7298,9.59031 2.91918,15.5322 2.18939,5.94189 5.94202,12.61323 9.4865,17.19972 3.54448,4.58649 6.88015,7.08825 11.67538,9.48563 4.79522,2.39739 11.04961,4.69066 17.0956,5.94136 6.046,1.2507 11.88342,1.45918 17.09544,1.14636 5.21201,-0.31283 9.79856,-1.14675 15.11473,-3.23164 5.31616,-2.08489 11.36206,-5.42056 15.53158,-8.23502 4.16952,-2.81445 6.4628,-5.10773 7.08838,-8.44292 0.62558,-3.3352 -0.41681,-7.71327 -2.50139,-11.88301 -2.08457,-4.16975 -5.21176,-8.13086 -8.54737,-10.63304 -3.33561,-2.50219 -6.87976,-3.54459 -10.84151,-2.39813 -3.96176,1.14646 -8.33982,4.48213 -11.8841,7.2967 -3.54428,2.81457 -6.25451,5.10784 -8.54735,6.15036 -2.29283,1.04251 -4.16914,0.83404 -6.14994,-0.93758 -1.9808,-1.77162 -4.06559,-5.1073 -5.42099,-8.33883 -1.3554,-3.23154 -1.98084,-6.35873 -2.18946,-9.6946 -0.20863,-3.33588 -1.5e-4,-6.88003 0.83373,-10.84144 0.83387,-3.9614 2.29323,-8.33946 4.27402,-11.4671 1.9808,-3.12763 4.48256,-5.00395 5.83764,-3.64822 z"
       id="path6266"
       inkscape:path-effect="#path-effect6268"
       inkscape:original-d="m 743.57096,104.09291 c 0.20948,4.58764 0.41797,9.17428 0.62545,13.75992 1.6689,2.71134 3.33674,5.42157 5.00361,8.13086 2.29436,0.41798 4.58764,0.83493 6.87995,1.2509 3.33681,-3.54329 6.67248,-7.08744 10.00722,-10.63266 2.29436,-8.547 4.58763,-17.094652 6.87995,-25.643479 -1.45841,-5.41968 -2.91777,-10.84015 -4.37815,-16.26172 -4.16876,-3.75178 -8.33834,-7.50441 -12.50902,-11.25811 -5.0027,-0.41598 -10.00621,-0.83294 -15.01081,-1.2509 -3.54329,0.83495 -7.08744,1.66887 -10.63266,2.5018 -3.5433,2.50285 -7.08745,5.00461 -10.63267,7.50541 -5.0027,4.37924 -10.00621,8.75731 -15.01081,13.13446 -3.33481,6.67261 -6.67048,13.34395 -10.00722,20.014429 -0.83295,5.83865 -1.66686,11.67608 -2.5018,17.51262 -0.41597,3.54529 -0.83293,7.08944 -1.2509,10.63266 0.62646,5.21319 1.2519,10.42518 1.87635,15.63627 3.75378,6.6726 7.50641,13.34395 11.25812,20.01442 3.3368,2.50285 6.67247,5.00461 10.00721,7.50541 6.25563,2.29436 12.51001,4.58764 18.76352,6.87996 5.83866,0.20948 11.67608,0.41796 17.51262,0.62545 4.58773,-0.83295 9.17428,-1.66687 13.75991,-2.50181 6.04715,-3.3348 12.09305,-6.67047 18.13807,-10.00721 2.29437,-2.29236 4.58764,-4.58564 6.87996,-6.87996 -1.04144,-4.37724 -2.08383,-8.75531 -3.12725,-13.13446 -3.12632,-3.96027 -6.25351,-7.92138 -9.38176,-11.88356 -3.54329,-1.04144 -7.08744,-2.08384 -10.63266,-3.12726 -4.37725,3.33681 -8.75531,6.67248 -13.13447,10.00721 -2.70934,2.29437 -5.41957,4.58764 -8.13086,6.87996 -1.87539,-0.20749 -3.7517,-0.41597 -5.62905,-0.62545 -2.08388,-3.3348 -4.16868,-6.67047 -6.25451,-10.00721 -0.62446,-3.12632 -1.2499,-6.25351 -1.87635,-9.38176 0.20948,-3.54329 0.41796,-7.08744 0.62545,-10.63266 1.46041,-4.37725 2.91977,-8.75531 4.37815,-13.13447 2.50285,-1.87539 5.00461,-3.7517 7.50541,-5.62906 z" />
    <path
       style="fill:#df0000;fill-opacity:1;stroke:#050505;stroke-width:9.3;stroke-dasharray:none;stroke-opacity:1"
       d="m 781.61977,59.775799 c 3.23212,4.377847 10.11207,6.254198 14.90724,7.713664 4.79516,1.459466 7.50539,2.501865 8.9642,4.795516 1.45882,2.293651 1.6673,5.837801 1.66726,12.822069 -5e-5,6.984267 -0.20853,17.408232 -0.72977,27.311252 -0.52125,9.90302 -1.35517,19.2846 -1.87635,26.99858 -0.52119,7.71398 -0.72967,13.75989 -0.31254,19.07637 0.41712,5.31648 1.45952,9.90303 3.6491,12.92573 2.18958,3.02271 5.52525,4.48206 8.86099,5.52433 3.33574,1.04227 6.67141,1.6677 10.00696,1.56326 3.33556,-0.10445 6.67123,-0.93836 8.6514,-3.23123 1.98018,-2.29286 2.60562,-6.04549 3.33536,-13.23823 0.72973,-7.19273 1.56365,-17.82518 2.18911,-26.89428 0.62546,-9.0691 1.04242,-16.57436 1.04247,-24.8095 4e-5,-8.23514 -0.41691,-17.199741 -0.1043,-22.724899 0.31261,-5.525158 1.355,-7.609954 4.1701,-8.965361 2.8151,-1.355406 7.40165,-1.980847 12.40527,-2.81481 5.00363,-0.833962 10.42409,-1.876357 17.40837,-3.231517 6.98429,-1.355161 15.53195,-3.022999 22.09897,-5.316354 6.56701,-2.293355 11.15356,-5.212067 14.48917,-7.818027 3.3356,-2.605959 5.42041,-4.899247 6.35861,-8.964235 0.9382,-4.064987 0.72971,-9.902408 -5.21172,-12.50899 -5.94144,-2.606581 -17.61628,-1.981143 -23.97501,-1.668393 -6.35873,0.312751 -7.40113,0.312751 -7.81862,-1.667412 -0.41749,-1.980162 -0.20901,-5.941272 -7.40139,-6.879957 -7.19239,-0.938684 -21.78595,1.146107 -35.75449,3.230958 -13.96854,2.084851 -27.31122,4.169646 -37.11005,5.94175 -9.79884,1.772104 -16.05323,3.231461 -19.38936,7.401754 -3.33613,4.170294 -3.75309,11.050114 -0.52098,15.427962 z"
       id="path6324"
       inkscape:original-d="m 777.97075,62.276975 c 6.88095,1.87735 13.76091,3.7537 20.63987,5.62905 2.71134,1.04344 5.42157,2.08584 8.13086,3.12726 0.20949,3.54529 0.41797,7.08944 0.62545,10.63266 -0.20749,10.42539 -0.41597,20.849355 -0.62545,31.272535 -0.83295,9.38294 -1.66687,18.76452 -2.5018,28.14528 -0.20749,6.04714 -0.41597,12.09305 -0.62545,18.13807 1.04343,4.58773 2.08583,9.17428 3.12725,13.75992 3.3368,1.46041 6.67247,2.91977 10.00721,4.37815 3.3368,0.62646 6.67247,1.2519 10.00721,1.87635 3.33681,-0.83295 6.67248,-1.66687 10.00721,-2.5018 0.62647,-3.75178 1.2519,-7.50441 1.87636,-11.25811 0.83495,-10.63188 1.66886,-21.26433 2.5018,-31.89799 0.41797,-7.50456 0.83493,-15.00982 1.2509,-22.51623 -0.41598,-8.96397 -0.83293,-17.928575 -1.2509,-26.894375 1.04344,-2.08387 2.08583,-4.16867 3.12725,-6.2545 4.58773,-0.62447 9.17428,-1.24991 13.75992,-1.87636 5.42168,-1.04143 10.84214,-2.08383 16.26172,-3.12725 8.54899,-1.6669 17.09665,-3.33474 25.64348,-5.00361 4.58773,-2.91782 9.17427,-5.83654 13.75991,-8.75631 2.08588,-2.29236 4.17071,-4.58563 6.25451,-6.87995 -0.2075,-5.83666 -0.416,-11.67408 -0.6255,-17.51262 -11.67427,0.62646 -23.34911,1.2519 -35.02519,1.87635 -1.04144,10e-4 -2.08384,10e-4 -3.12726,0 0.20949,-3.96027 0.41797,-7.92138 0.62546,-11.88356 -14.59315,2.08587 -29.18671,4.17067 -43.78156,6.2545 -13.34221,2.08588 -26.68489,4.17067 -40.02884,6.25451 -6.25363,1.46041 -12.50802,2.91977 -18.76352,4.37815 -0.41598,6.8811 -0.83294,13.76092 -1.2509,20.63988 z"
       inkscape:path-effect="#path-effect6326" />
    <path
       style="fill:#df0000;fill-opacity:1;stroke:#050505;stroke-width:9.3;stroke-dasharray:none;stroke-opacity:1"
       d="m 891.56505,175.51393 c 1.2505,-3.96063 1.45898,-11.46604 2.08441,-20.53522 0.62543,-9.06918 1.66783,-19.70163 1.8764,-28.35367 0.20857,-8.65204 -0.41687,-15.32338 -2.60561,-21.16095 -2.18875,-5.837566 -5.94138,-10.841073 -9.6941,-13.134994 -3.75272,-2.293921 -7.50535,-1.876963 -10.63315,0.208075 -3.12779,2.085039 -5.62954,5.837664 -7.81865,11.571279 -2.18911,5.73361 -4.06542,13.44736 -5.42053,21.05716 -1.35512,7.60981 -2.18903,15.11507 -2.50169,21.47395 -0.31265,6.35888 -0.10417,11.57086 0.31286,16.47031 0.41702,4.89945 1.04246,9.486 2.29375,12.92598 1.25129,3.43999 3.12761,5.73327 6.04657,7.81786 2.91897,2.0846 6.88007,3.96091 10.0072,4.79451 3.12713,0.83361 5.4204,0.62513 6.98349,-0.93815 1.56309,-1.56329 2.39701,-4.482 3.96115,-6.15028 1.56414,-1.66827 3.85741,-2.08523 5.1079,-6.04586 z"
       id="path6328"
       inkscape:path-effect="#path-effect6330"
       inkscape:original-d="m 892.60709,179.05774 c 0.20948,-7.50441 0.41797,-15.00982 0.62545,-22.51622 1.04344,-10.63188 2.08584,-21.26433 3.12725,-31.89799 -0.62446,-6.67061 -1.2499,-13.34195 -1.87635,-20.01442 -3.75178,-5.002706 -7.50441,-10.006213 -11.25811,-15.010813 -3.75178,0.41797 -7.50441,0.83493 -11.25811,1.2509 -2.50086,3.75378 -5.00261,7.506407 -7.50541,11.258103 -1.87539,7.71505 -3.75171,15.42879 -5.62906,23.14168 -0.83295,7.50656 -1.66687,15.01182 -2.5018,22.51623 0.20948,5.21319 0.41796,10.42517 0.62545,15.63626 0.62646,4.58773 1.2519,9.17428 1.87635,13.75992 1.87739,2.29436 3.7537,4.58764 5.62906,6.87996 3.96226,1.87739 7.92337,3.7537 11.88356,5.62905 2.29437,-0.20748 4.58764,-0.41596 6.87996,-0.62545 0.83495,-2.91783 1.66887,-5.83654 2.5018,-8.75631 2.29437,-0.41597 4.58764,-0.83293 6.87996,-1.2509 z" />
    <path
       style="fill:#df0000;fill-opacity:1;stroke:#050505;stroke-width:9.3;stroke-dasharray:none;stroke-opacity:1"
       d="m 975.97185,50.617423 c -4.37815,-1.355711 -10.63265,-1.147228 -15.84509,-6.27e-4 -5.21243,1.1466 -9.38203,3.231388 -13.13502,6.254587 -3.75299,3.023199 -7.08867,6.984318 -10.94563,11.570987 -3.85696,4.586669 -8.23503,9.79868 -11.36237,14.906809 -3.12733,5.108129 -5.00364,10.111631 -6.6715,15.949339 -1.66787,5.837702 -3.12722,12.509052 -4.48236,20.118832 -1.35513,7.60978 -2.60601,16.15743 -1.35477,25.1225 1.25124,8.96508 5.00387,18.34665 8.7569,24.7053 3.75302,6.35865 7.50565,9.69433 11.25843,11.8831 3.75278,2.18877 7.50547,3.23118 12.71759,4.16927 5.21211,0.93808 11.88351,1.77201 18.45052,0.93788 6.56702,-0.83413 13.02991,-3.33589 18.03328,-6.25459 5.00336,-2.9187 8.54753,-6.2544 12.30016,-11.57062 3.75262,-5.31622 7.71371,-12.61298 10.42401,-18.97163 2.7103,-6.35864 4.1697,-11.77912 5.0037,-18.45052 0.834,-6.6714 1.0425,-14.59362 0.7298,-22.20328 -0.3126,-7.60966 -1.1465,-14.906433 -2.8142,-21.056706 -1.6677,-6.150274 -4.1694,-11.153762 -7.92192,-15.949046 -3.75252,-4.795283 -8.75601,-9.381837 -12.50882,-13.134521 -3.7528,-3.752683 -6.25455,-6.671352 -10.63271,-8.027064 z"
       id="path6332"
       inkscape:path-effect="#path-effect6334"
       inkscape:original-d="m 977.84723,49.053261 c -6.2535,0.20948 -12.508,0.41797 -18.7635,0.62545 -4.1688,2.08588 -8.3384,4.17067 -12.5091,6.25451 -3.3348,3.96227 -6.6705,7.92337 -10.0072,11.88356 -4.37716,5.2132 -8.75527,10.42518 -13.13442,15.63627 -1.87539,5.00471 -3.75171,10.00821 -5.62906,15.01082 -1.45841,6.672609 -2.91777,13.343949 -4.37815,20.014419 -1.24993,8.549 -2.50081,17.09665 -3.75271,25.64348 3.75378,9.38295 7.50641,18.76452 11.25811,28.14528 3.75378,3.33681 7.50641,6.67248 11.25807,10.00721 3.75376,1.04344 7.50646,2.08584 11.25816,3.12726 6.6726,0.83495 13.344,1.66887 20.0145,2.5018 6.4641,-2.50085 12.927,-5.00261 19.389,-7.50541 3.5452,-3.3348 7.0894,-6.67047 10.6326,-10.00721 3.9623,-7.29607 7.92337,-14.59285 11.88357,-21.89077 1.4604,-5.41969 2.9198,-10.84015 4.3781,-16.26172 0.2095,-7.92154 0.418,-15.84376 0.6255,-23.76713 -0.833,-7.29607 -1.6669,-14.592849 -2.5018,-21.890779 -2.5009,-5.0027 -5.0026,-10.00621 -7.5054,-15.01081 -5.00267,-4.58573 -10.00617,-9.17228 -15.01077,-13.75992 -2.5009,-2.91783 -5.0026,-5.83654 -7.5055,-8.75631 z" />
    <path
       style="fill:#050505;fill-opacity:1;stroke:none;stroke-width:9.3;stroke-dasharray:none;stroke-opacity:1"
       d="m 959.14377,87.831532 c -2.71093,4.169908 -5.62973,12.717738 -7.71458,19.910568 -2.08485,7.19284 -3.33572,13.03026 -4.16962,18.34672 -0.83389,5.31646 -1.25085,10.11148 -0.62505,14.17709 0.62581,4.06561 2.29366,7.40131 3.9613,8.33881 1.66765,0.9375 3.33554,-0.52187 5.73302,-3.3363 2.39749,-2.81442 5.52469,-6.98401 7.92226,-12.7171 2.39756,-5.7331 4.06539,-13.02987 4.89941,-18.65883 0.83402,-5.62897 0.83402,-9.59008 0.3129,-14.280935 -0.52111,-4.690854 -1.56352,-10.111312 -3.33521,-12.92638 -1.77169,-2.815068 -4.27349,-3.023551 -6.98443,1.146357 z"
       id="path6336"
       inkscape:path-effect="#path-effect6338"
       inkscape:original-d="m 959.35183,83.453051 c -2.9177,8.54883 -5.8365,17.096659 -8.7564,25.643479 -1.2499,5.83866 -2.5008,11.67608 -3.7527,17.51262 -0.416,4.79622 -0.8329,9.59125 -1.2509,14.38537 1.6689,3.3368 3.3368,6.67247 5.0036,10.00721 1.669,-1.45841 3.3369,-2.91777 5.0037,-4.37815 3.1283,-4.16876 6.2555,-8.33835 9.3818,-12.50902 1.6689,-7.29607 3.3367,-14.59285 5.0036,-21.89077 0.001,-3.96027 0.001,-7.92138 0,-11.88357 -1.0414,-5.419679 -2.0838,-10.840139 -3.1273,-16.261719 -2.5008,-0.20748 -5.0026,-0.41596 -7.5054,-0.62545 z" />
    <path
       style="fill:#df0000;fill-opacity:1;stroke:#050505;stroke-width:9.3;stroke-dasharray:none;stroke-opacity:1"
       d="m 1015.7467,173.87627 c 0.3124,-5.83775 1.9803,-14.17709 4.1694,-24.28869 2.1891,-10.11159 4.8993,-21.9949 7.1927,-34.92096 2.2934,-12.92607 4.1697,-26.894182 6.5673,-36.901665 2.3975,-10.007482 5.3162,-16.05338 8.5482,-19.597929 3.2319,-3.544549 6.776,-4.586937 11.0502,-2.397191 4.2741,2.189747 9.2776,7.610215 13.4471,13.135148 4.1696,5.524934 7.5053,11.153875 10.2156,15.844791 2.7103,4.690915 4.7951,8.443549 6.2541,8.860241 1.459,0.416692 2.2929,-2.502014 3.8565,-9.277794 1.5637,-6.775779 3.8569,-17.408239 6.6715,-25.956312 2.8145,-8.548074 6.1502,-15.010957 10.112,-18.451168 3.9618,-3.440212 8.5483,-3.857166 12.1969,-3.439856 3.6487,0.41731 6.3589,1.66817 7.6091,2.919212 1.2503,1.251042 1.0418,2.501928 1.8761,5.10819 0.8343,2.606261 2.7106,6.567411 2.9188,16.261893 0.2081,9.694481 -1.2512,25.121957 -2.9191,37.631 -1.668,12.50904 -3.5443,22.0991 -4.8994,29.29185 -1.3552,7.19275 -2.1891,11.98777 -4.691,20.11863 -2.5019,8.13086 -6.6714,19.5972 -9.7987,27.83233 -3.1273,8.23513 -5.2121,13.23864 -8.5472,15.32331 -3.3352,2.08466 -7.9217,1.25076 -11.466,-0.83366 -3.5444,-2.08443 -6.0462,-5.42007 -7.2975,-9.38137 -1.2513,-3.96129 -1.2513,-8.54784 -2.502,-14.07262 -1.2507,-5.52478 -3.7525,-11.98764 -6.2542,-17.40825 -2.5018,-5.42061 -5.0035,-9.7987 -6.5675,-11.57133 -1.564,-1.77262 -2.1895,-0.93867 -2.7107,1.45929 -0.5212,2.39796 -0.9381,6.35906 -2.1891,10.63281 -1.251,4.27374 -3.3358,8.86029 -5.6291,13.65544 -2.2934,4.79515 -4.7951,9.79864 -8.1308,14.28088 -3.3356,4.48223 -7.5052,8.44335 -12.1956,9.79862 -4.6903,1.35526 -9.9023,0.10439 -13.03,-2.18852 -3.1277,-2.2929 -4.1701,-5.62856 -3.8576,-11.46632 z"
       id="path6448"
       inkscape:path-effect="#path-effect6450"
       inkscape:original-d="m 1014.3914,176.3771 c 1.6689,-8.33834 3.3368,-16.67768 5.0036,-25.01803 2.7114,-11.8828 5.4216,-23.76612 8.1309,-35.65069 1.8774,-13.96768 3.7537,-27.935797 5.6291,-41.905187 2.9198,-6.04515 5.8385,-12.09105 8.7563,-18.13808 3.5453,-1.04143 7.0894,-2.08383 10.6326,-3.12725 5.0047,5.42168 10.0082,10.84215 15.0108,16.26172 3.3368,5.63017 6.6725,11.25911 10.0073,16.88717 2.0858,3.75378 4.1706,7.50641 6.2545,11.25811 0.8349,-2.91783 1.6688,-5.83654 2.5018,-8.75631 2.2943,-10.63187 4.5876,-21.26432 6.8799,-31.89798 3.3368,-6.46212 6.6725,-12.92499 10.0072,-19.38898 4.5878,-0.41597 9.1743,-0.83293 13.7599,-1.2509 2.7114,1.25193 5.4216,2.5028 8.1309,3.75271 -0.2075,1.25192 -0.416,2.5028 -0.6254,3.7527 1.8773,3.96227 3.7537,7.92338 5.629,11.88356 -1.4584,15.4291 -2.9178,30.85657 -4.3781,46.283357 -1.8754,9.59143 -3.7517,19.18149 -5.6291,28.77073 -0.833,4.79622 -1.6669,9.59124 -2.5018,14.38537 -4.1688,11.46782 -8.3383,22.93419 -12.509,34.39979 -2.0839,5.0047 -4.1687,10.00821 -6.2545,15.01081 -4.5858,-0.83295 -9.1723,-1.66687 -13.7599,-2.5018 -2.5009,-3.3348 -5.0026,-6.67047 -7.5054,-10.00721 0,-4.58573 0,-9.17228 0,-13.75992 -2.5009,-6.46212 -5.0027,-12.92498 -7.5055,-19.38897 -2.5008,-4.37724 -5.0026,-8.75531 -7.5054,-13.13446 -0.6244,0.83495 -1.2499,1.66886 -1.8763,2.5018 -0.416,3.96227 -0.833,7.92337 -1.2509,11.88356 -2.0839,4.58773 -4.1687,9.17428 -6.2545,13.75992 -2.5009,5.0047 -5.0026,10.00821 -7.5054,15.01082 -4.1688,3.96226 -8.3384,7.92337 -12.509,11.88356 -5.2112,-1.24993 -10.4232,-2.5008 -15.6363,-3.75271 -1.0415,-3.3348 -2.0839,-6.67047 -3.1273,-10.00721 z" />
  </g>
</svg>
